<svg width="89" height="77" viewBox="0 0 89 77" fill="none" xmlns="http://www.w3.org/2000/svg">
<path d="M5.2099 8.87992C5.82075 3.46378 10.6564 -0.46564 16.0829 0.0445491L57.6158 3.94935C61.91 4.35308 65.4616 7.46465 66.4264 11.6685L76.0015 53.3888C77.439 59.6519 72.6809 65.6257 66.2549 65.6257H10.0012C4.0345 65.6257 -0.604481 60.4341 0.0642173 54.505L5.2099 8.87992Z" fill="#1197D0"/>
<path d="M17.2099 19.8799C17.8207 14.4638 22.6564 10.5344 28.0829 11.0445L69.6158 14.9493C73.91 15.3531 77.4616 18.4646 78.4264 22.6685L88.0015 64.3888C89.439 70.6519 84.6809 76.6257 78.2549 76.6257H22.0012C16.0345 76.6257 11.3955 71.4341 12.0642 65.505L17.2099 19.8799Z" fill="#E0E0E0"/>
</svg>
