<svg width="578" height="113" viewBox="0 0 578 113" fill="none" xmlns="http://www.w3.org/2000/svg">
<g style="mix-blend-mode:plus-lighter">
<path d="M39.0169 109.749C39.3667 109.632 40.723 110.02 41.3154 109.991C40.5849 111.367 37.7587 110.174 39.0169 109.749ZM103.632 9.98424C103.143 10.3176 102.648 10.6507 102.149 10.9835C103.535 11.2534 105.339 11.0521 106.606 11.4194C106.81 11.4809 106.247 12.4732 106.732 12.5323C107.217 12.591 107.161 11.2111 107.867 11.0838C108.693 10.947 112.281 12.004 113.533 12.0104C116.36 12.0241 119.195 11.7758 121.979 11.7136C122.186 11.6777 122.819 11.7741 123.027 11.7426C125.281 11.7575 127.27 11.8678 129.09 12.1747C124.093 12.9689 129.108 14.2366 130.373 13.8475C130.664 13.7543 130.735 11.2085 135.337 12.0197C138.294 12.5262 135.429 16.1048 140.495 14.4168C136.696 11.744 140.488 12.0393 143.576 12.0286C144.056 12.027 148.402 12.5104 150.321 12.4323C151.009 12.4063 151.972 11.0826 152.875 11.0637C153.504 11.0518 153.92 11.7929 154.809 11.7708C158.987 11.6768 163.115 11.6787 167.368 11.98C164.829 15.3962 169.26 13.4733 169.454 13.6399C170.43 14.5881 165.947 14.7996 167.705 15.4069C170.192 15.3309 172.706 15.2527 175.276 15.173C173.196 14.7277 178.017 12.2983 178.906 13.4346C178.609 10.3876 190.395 16.1905 192.243 15.1841C192.64 14.9719 190.112 13.4481 195.923 14.1793C196.564 14.2603 196.313 15.1778 196.635 15.0944C196.826 15.0442 198 12.1307 199.251 13.7536C199.714 14.3457 196.726 16.2458 203.251 15.5163C201.772 13.7414 205.098 13.5261 208.712 13.8014C211.041 13.9892 213.491 14.4067 214.373 14.714C213.942 14.3123 213.513 13.9106 213.086 13.5088C215.21 14.5976 215.617 13.5885 216.071 13.6459C217.938 13.8765 220.572 14.9078 222.401 14.823C224.456 14.7252 224.46 12.8759 226.893 13.6056C226.315 13.1951 225.74 12.7847 225.169 12.3742C226.833 12.4796 228.546 12.585 230.239 12.69C226.293 15.122 231.099 12.8103 231.371 12.7586C231.862 12.6714 231.152 13.6708 231.975 13.5492C232.061 13.529 231.938 12.5848 233.214 12.4837C235.892 12.2756 235.472 13.4605 236.609 13.4513C236.707 13.4455 236.372 12.5941 238.306 12.3999C244.419 11.7809 238.262 13.0514 238.04 13.168C237.716 13.3218 239.866 16.883 234.561 15.6036C236.33 16.0112 236.511 17.5841 236.711 17.6239C236.917 17.6568 239.918 17.446 240.09 17.3923C241.583 16.8636 240.274 15.7846 240.566 15.5931C240.796 15.4387 244.481 16.8513 245.377 13.6223C247.152 16.6089 244.322 16.3269 241.374 16.7751C240.937 17.3853 244.187 17.991 244.365 17.9899C248.571 17.998 246.238 15.5385 247.158 13.974C247.633 13.1555 249.318 14.8335 247.766 12.6301C251.537 12.4096 249.248 13.6766 249.489 13.8659C249.856 14.144 251.189 13.5179 251.357 13.6023C251.602 13.7273 250.746 14.486 251.713 14.757C251.874 14.7965 253.441 13.4912 251.428 12.8591C254.114 13.0532 253.926 11.9356 254.802 14.1892C256.628 9.93568 256.113 16.7101 256.83 16.9507C258.744 17.5849 258.2 14.2399 258.301 14.0771C258.993 13.0342 264.377 14.1968 265.658 13.718C265.138 16.125 261.458 13.7337 260.605 14.1986C257.814 15.7456 264.539 15.4129 262.503 18.4335C263.359 17.6046 264.172 16.7757 265.012 15.9467C266.542 17.896 264.35 18.7391 268.503 18.0381C269.185 16.3606 265.568 18.2963 266.297 16.9753C266.721 16.2001 269.133 16.0392 269.184 15.63C269.231 15.1375 267.05 15.7161 267.396 14.9592C268.137 13.326 276.139 14.901 270.048 15.7794C271.759 15.7555 272.605 19.0098 274.054 17.9996C275 17.3439 269.709 12.8404 277.659 13.6814C277.822 15.2176 274.471 14.1281 274.389 14.2447C274.267 14.4146 274.862 17.8816 274.967 18.0529C275.317 18.6171 283.517 16.7784 285.198 18.5227C284.497 16.5184 291.415 18.177 292.114 17.5678C292.311 17.3997 291.58 16.1714 291.79 16.0419C293.095 15.2713 296.657 17.4677 298.331 17.5272C300.202 17.5946 299.969 16.5345 300.073 16.5367C300.899 16.5971 300.242 17.3144 300.74 17.3132C301.477 17.311 306.642 17.4659 306.911 17.3164C306.987 17.2698 306.14 16.058 307.274 15.83C307.473 15.7905 307.337 17.2256 310.718 16.6105C314.721 15.8705 307.917 14.8217 309.588 13.3211C312.193 15.4649 312.082 13.344 312.786 13.5115C313.028 13.5725 314.822 15.378 316.792 15.2666C315.378 15.5574 313.971 15.8481 312.57 16.1389C313.944 16.4569 316.635 16.0692 317.783 16.4279C318.343 16.6025 317.879 18.0831 319.097 18.0446C319.357 18.0284 320.383 14.4211 317.196 16.0362C316.943 14.7473 318.456 15.5884 319.162 15.2248C319.269 15.1681 319.691 13.016 320.593 14.355C320.796 14.6844 318.487 20.9611 324.474 16.4235C324.667 16.2772 323.996 15.49 324.185 15.3272C324.314 15.2169 325.848 15.5369 326.019 15.4255C326.193 15.306 325.451 14.4466 325.658 14.2779C326.719 13.4086 328.11 16.8154 325.921 16.5534C326.652 16.9751 327.384 17.3968 328.117 17.8185C327.335 15.2512 329.27 17.0977 330.291 17.0198C336.769 16.5218 332.433 14.8479 333.547 13.9856C335.333 12.6009 333.962 16.9912 336.621 15.6744C336.871 15.5512 333.641 13.6837 339.942 14.742C339.01 14.8138 338.079 14.8854 337.151 14.9571C337.682 17.4399 340.511 14.7902 340.73 14.7556C343.218 14.4172 341.539 15.3105 345.188 14.0357C345.514 13.9212 346.223 14.5345 346.922 14.2296C349.819 12.9733 343.104 13.4621 342.932 12.457C342.835 11.9645 350.054 12.0952 350.314 12.3291C351.371 13.3665 347.026 12.7827 347.854 14.0702C348.162 14.5275 358.467 13.5978 360.541 14.0999C362.935 14.6844 364.019 18.0506 364.037 14.2692C364.715 17.9815 365.299 15.4494 365.605 15.4752C369.278 15.8214 369.287 15.8588 372.461 15.5055C373.162 15.4287 373.755 16.5553 374.004 16.3653C374.149 16.2505 373.879 15.0451 374.588 14.6737C375.59 14.1657 381.43 15.4088 381.878 16.0752C382.315 16.7417 379.394 16.3627 379.917 17.4584C382.029 17.5704 384.063 17.3005 386.205 17.4171C387.096 17.4688 386.638 18.2353 387.023 18.2507C387.19 18.2602 390.225 17.5867 390.099 17.3038C389.818 16.6461 380.347 17.083 382.841 15.7425C383.32 15.4835 385.019 17.2512 384.75 15.1027C393.177 15.5944 401.591 16.0853 410.048 16.5755C405.163 18.1806 399.785 16.7412 394.667 16.8894C393.969 16.9077 391.62 16.6994 391.906 17.7854C396.222 18.0686 401.589 17.5052 405.726 18.2145C405.858 18.238 405.371 19.2134 405.868 19.3682C406.796 19.6571 409.83 18.0848 410.342 18.4919C410.429 18.5867 408.7 19.8722 409.225 20.6897C410.574 22.7877 410.918 18.1422 412.066 18.1977C412.95 18.2426 418.942 20.4909 420.447 19.0721C422.039 17.56 416.016 18.1925 416.464 16.9559C420.536 15.7144 424.658 17.0428 428.491 16.889C428.558 16.8851 427.971 15.9158 428.828 15.7804C430.32 15.5448 430.713 16.9197 431.44 17.1398C432.222 17.3741 435.01 17.1778 435.373 17.6791C435.42 17.7448 434.862 19.1083 434.776 19.1466C433.563 19.7083 433.134 17.9384 433.024 17.9157C432.61 17.8484 432.203 18.5262 431.826 18.4858C431.205 18.4183 430.864 17.791 430.045 17.7354C429.48 17.6948 430.025 18.8993 429.481 18.844C429.281 18.8189 427.13 16.0683 426.929 18.8754C426.866 19.7606 444.462 20.9015 446.241 20.1937C444.726 19.8559 443.213 19.5181 441.703 19.1802C444.77 20.0025 448.467 17.7602 448.718 21.0786C460.082 21.352 471.45 21.6247 482.82 21.8968C484.855 22.1797 483.742 24.312 487.075 23.6917C486.213 23.0122 485.352 22.3328 484.492 21.6534C486.195 22.1301 493.777 23.0617 495.01 22.6218C495.169 22.5642 495.392 20.6342 497.289 20.4685C498.967 20.3222 499.237 21.7682 500.135 22.0452C500.889 22.2738 501.736 21.895 501.96 21.9748C502.132 22.0387 502.2 22.923 502.613 23.0772C503.919 23.554 502.861 21.0642 504.157 23.9232C503.841 24.0322 503.526 24.1411 503.21 24.25C504.786 24.6639 506.941 25.9619 504.618 26.6022C504.219 26.7127 504.562 25.8573 504.264 25.8587C492.617 26.0172 501.911 27.6806 506.001 26.3523C507.054 27.6198 512.933 26.8461 513.127 27.0959C513.398 27.4577 512.393 28.4707 513.711 29.3454C513.985 29.5306 521.852 28.821 519.019 30.5055C518.434 30.853 514.664 30.4879 513.757 30.5375C515.892 33.2241 520.908 29.3751 521.473 29.4737C523.75 29.8925 517.099 31.802 522.228 32.1142C526.162 32.3538 522.469 30.5599 523.982 29.7942C524.831 29.3646 529.286 31.3408 529.166 28.7816C530.696 28.5084 529.8 29.8634 529.989 29.9609C530.174 30.0466 533.183 29.2805 534.161 29.8199C534.28 29.887 533.906 31.2172 534.029 31.326C534.269 31.5124 537.167 31.2465 537.284 31.1337C537.358 31.0554 536.667 29.8909 536.951 29.6084C537.282 29.2828 540.071 29.5568 540.225 29.2239C540.443 28.7205 536.999 29.0521 537.573 27.7498C539.159 28.0777 541.747 27.2088 542.796 26.1604C542.539 26.4602 540.999 26.5032 540.464 26.3975C540.715 24.4902 544.023 24.5162 542.892 26.0258C543.611 25.2151 543.12 24.785 543.525 24.0198C543.631 23.826 544.652 23.7861 544.849 23.4558C544.875 23.3901 543.821 22.6704 544.032 22.283C544.414 21.583 547.512 21.7405 547.766 21.9241C548.479 22.4446 545.953 23.0743 545.742 23.8788C545.712 24.0024 547.861 25.579 547.893 25.7182C548.019 27.2121 545.628 26.1355 545.902 27.4807C546.493 27.7648 547.084 28.0489 547.675 28.333C545.394 29.6952 541.178 28.9948 540.091 30.5441C543.469 30.0831 547.008 30.1376 547 33.6268C546.998 35.0963 545.539 35.9578 545.596 36.3314C545.811 37.6683 547.836 36.2159 547.91 36.2865C547.972 36.368 548 36.4473 548 36.5245C548 36.5246 548 36.5246 548 36.5246C548 37.3074 545.113 37.8711 544.969 38.2284C544.726 38.8633 546.011 41.4766 546.009 42.0546C545.964 42.1707 543.909 42.7891 544.602 43.7978C545.304 44.8167 547.103 44.8391 547.166 44.945C547.509 45.5545 544.363 46.1104 544.269 46.4703C544.219 46.6523 545.909 47.7704 545.958 48.0918C546 48.4144 544.716 49.1182 544.21 50.1362C543.833 50.8926 544.932 51.4725 544.738 51.5911C544.6 51.6697 541.628 51.6568 541.482 51.7897C541.265 51.9864 541.961 52.8904 541.859 53.1164C541.715 53.4415 540.756 53.1152 540.881 53.4497C540.974 53.6989 544.695 56.8151 544.671 57.6475C544.629 59.0672 540.688 55.8006 544.355 61.4032C544.38 61.4399 545.273 61.0418 545.298 61.0763C545.849 62.1071 542.987 63.6927 546.487 63.4156C539.977 65.2059 545.676 65.5498 544.713 67.9403C544.341 68.8591 541.818 69.238 541.807 69.3759C542.052 70.5415 542.856 69.6375 543.129 70.209C543.279 70.5284 541.022 71.7608 541.53 72.5611C541.793 72.9735 544.189 72.8267 544.288 72.9072C545.236 73.6659 544.073 74.4832 544.281 75.0221C544.42 75.3835 545.866 75.4121 545.904 75.4772C545.965 75.6125 544.001 77.0725 543.592 77.5857C543.281 77.9806 544.448 78.5992 544.231 78.7714C542.924 79.8008 540.144 77.1754 542.823 80.8543C542.987 81.0799 544 80.9887 544.03 81.0337C544.656 82.0766 542.79 82.1668 542.456 83.0205C541.883 84.4916 544.565 83.6714 542.335 84.706C544.008 85.6681 544.94 85.6279 546.9 85.3597C541.476 86.1079 539.563 89.9163 545.583 89.8204C543.668 89.761 543.88 91.9104 543.309 91.9481C542.954 91.9691 540.178 89.8321 541.451 94.6271C541.61 95.226 543.297 94.465 542.768 95.6909C538.722 95.3781 542.682 96.471 542.687 96.6331C542.633 99.4576 532.752 97.1441 531.047 97.4662C529.075 97.8397 527.323 100.065 526.895 100.068C525.486 100.069 526.655 98.9391 526.34 98.5236C526.019 98.112 522.018 100.277 521.814 100.158C521.036 99.6803 521.826 98.3412 521.745 98.2736C520.781 97.4531 515.392 98.5015 513.887 98.1902C513.933 99.0589 516.959 99.1279 515.07 100.523C512.87 102.15 512.745 98.3202 512.688 98.1517C502.603 98.1878 492.515 98.2237 482.441 98.2593C482.575 100.297 489.153 98.7607 489.305 99.0288C490.188 100.617 479.049 100.587 477.682 99.8675C478.72 100.308 479.758 100.748 480.797 101.188C479.022 103.53 475.101 100.487 472.547 101.521C471.721 101.856 473.307 102.76 473.274 102.822C472.347 103.731 470.852 103.03 471.971 101.809C469.692 102.979 470.025 101.688 468.278 101.591C468.188 101.586 468.938 102.532 467.556 102.924C466.908 103.106 463.463 103.109 463.003 103.936C462.813 104.284 464.559 107.949 464.775 104.795C468.524 106.333 465.973 103.357 467.431 103.43C467.655 103.446 467.137 105.207 470.815 104.379C470.112 107.554 465.883 105.179 465.16 105.564C463.666 106.354 469.822 107.995 470.958 105.52C470.426 107.998 471.402 105.854 472.766 105.956C474.263 106.066 473.61 106.804 474.421 106.808C476.639 106.827 475.719 105.077 477.55 106.655C475.765 101.773 480.684 106.011 482.123 107.289C479.785 107.537 477.451 107.785 475.122 108.032C475.255 108.289 475.388 108.545 475.521 108.801C474.907 108.765 474.294 108.729 473.681 108.692C473.779 108.447 473.877 108.201 473.976 107.955C470.82 109.552 470.03 107.757 469.774 107.737C466.439 107.528 462.601 107.543 459.248 107.537C458.742 107.536 459.086 109.134 455.401 107.882C454.227 107.484 455.336 106.241 454.005 106.427C452.341 109.805 452.373 107.111 451.879 107.106C450.461 107.107 449.596 107.943 449.465 107.952C447.723 108.082 445.143 107.942 443.213 108.066C443.177 108.079 444.181 109.117 442.928 108.809C442.487 108.7 438.543 104.269 435.114 105.712C436.006 106.011 436.899 106.311 437.793 106.61C436.755 106.192 429.348 107.306 431.158 108.493C432.265 109.218 434.985 106.363 435.274 109.109C432.792 108.287 419.255 109.512 418.177 108.873C418.031 108.782 418.932 107.892 418.73 107.778C418.572 107.691 415.463 107.901 415.052 107.559C414.807 107.355 416.179 106.81 416.067 106.489C415.968 106.26 412.096 105.877 411.877 106.993C412.825 106.546 415.498 106.938 414.096 107.879C413.916 107.995 412.982 107.275 412.764 107.423C410.732 108.791 416.802 108.464 417.75 108.476C413.928 109.897 408.013 108.218 403.577 109.144C401.789 108.213 406.231 107.723 404.206 106.952C400.011 105.354 403.089 108.237 402.959 108.355C401.912 109.292 398.387 104.265 398.37 108.09C396.839 107.514 397.333 107.032 395.176 107.531C395.46 107.796 395.743 108.061 396.027 108.326C393.626 110.541 388.592 104.949 388.972 104.522C389.984 103.382 392.611 105.163 392.836 105.12C393.17 105.057 394.085 101.176 397.742 104.648C399.237 102.046 391.954 102.889 395.267 101.116C393.025 101.406 383.872 99.5895 382.533 100.731C382.375 100.88 383.107 103.475 380.84 102.153C379.765 101.524 382.36 101.495 381.868 100.904C380.375 99.09 359.73 100.236 355.822 100.328C355.57 100.331 355.663 99.5262 355.414 99.5334C354.656 99.5553 351.859 100.753 350.473 100.382C353.332 101.874 347.776 101.985 346.38 101.82C344.253 101.568 344.388 100.152 343.472 99.8498C339.923 98.6852 334.38 102.043 331.663 98.8955C331.818 102.016 326.852 97.3602 324.627 97.3301C322.876 97.3056 320.352 99.3676 322.7 100.628C319.709 100.481 316.445 101.059 313.629 101.245C313.162 101.276 313.807 100.354 313.009 100.436C312.937 100.45 312.835 101.355 312.152 101.448C306.477 102.228 309.229 100.31 308.168 99.7436C307.569 99.4264 307.129 99.2684 306.806 99.2161C310.157 99.0443 313.934 98.6944 314.96 98.6701C314.1 96.672 307.629 99.0434 305.723 98.5031C305.657 98.4834 305.888 97.3831 305.821 97.3752C305.82 97.3752 305.819 97.3752 305.817 97.3752C305.1 97.2899 300.608 97.689 301.532 99.0029C301.779 99.3539 303.839 99.3565 306.314 99.241C305.644 99.4862 306.142 100.72 306.024 100.772C304.582 101.38 301.125 100.171 299.873 100.006C299.585 99.9703 299.605 100.76 299.558 100.762C298.417 100.581 298.888 98.3261 297.717 100.65C295.655 97.8357 301.601 100.239 301.159 98.4127C300.815 97.0069 287.801 97.7393 287.792 99.9533C287.747 99.7164 287.567 99.4221 287.197 99.087C286.373 98.3424 282.749 98.5678 282.132 98.9746C282.027 99.0547 282.065 101.204 281.935 101.224C281.648 101.273 277.119 99.578 275.478 100.845C276.372 101.148 277.269 101.451 278.171 101.754C272.744 101.761 273.601 102.403 275.39 103.049C275.48 103.055 275.567 103.137 275.653 103.146C277.046 103.624 278.852 104.086 278.879 104.255C278.949 104.903 269.827 105.243 271.585 103.252C271.83 102.98 276.041 103.878 273.956 102.45C273.591 102.2 270.888 102.6 270.725 102.443C269.789 101.398 275.709 100.026 274.99 98.543C273.54 99.9504 271.735 99.2034 270.034 99.5636C269.272 99.7265 269.083 100.804 268.989 100.824C267.589 101.102 268.377 99.9738 267.911 100.001C267.657 100.02 264.917 102.418 265.442 99.104C256.417 101.52 262.95 101.534 268.48 101.361C266.701 102.564 263.337 101.972 261.766 102.248C261.206 102.348 261.534 103.455 260.589 103.674C258.649 104.124 249.458 102.828 247.093 102.52C248.551 102.134 248.128 100.928 247.005 101.007C245.885 101.088 246.82 102.699 246.601 102.871C246.418 103.05 240.99 102.273 240.137 102.478C244.145 101.909 243.238 100.705 239.848 100.567C240.337 100.223 240.828 99.8784 241.321 99.5339C239.342 100.014 235.155 98.1656 233.984 98.7066C233.803 98.7936 234.451 99.8064 234.349 99.8552C233.322 100.281 229.924 99.2371 229.773 99.5812C229.638 99.8676 231.077 100.72 230.54 101.135C230.435 101.223 229.027 99.8514 227.607 100.181C227.084 100.303 227.394 101.259 227.263 101.314C226.169 101.769 226.813 100.163 224.833 100.413C223.38 100.598 222.351 102.167 220.287 101.636C226.896 103.671 221.361 102.809 218.56 103.403C218.121 103.498 218.473 105.235 215.872 104.377C221.434 101.268 214.354 102.712 212.778 102.67C212.696 102.658 212.672 101.514 211.944 101.492C211.883 101.493 211.966 102.266 211.291 102.322C209.648 102.457 208.722 102.501 208.21 102.478C206.654 102.413 208.732 101.797 207.81 101.226C207.27 100.898 204.129 101.973 203.315 101.994C203.126 101.996 203.216 101.193 202.486 101.22C201.204 101.27 199.942 102.116 199.081 102.178C198.981 102.182 198.975 100.914 197.338 101.314C196.879 101.426 196.366 101.873 197.01 102.241C199.156 103.455 203.355 101.408 205.801 102.618C208.022 103.721 201.029 103.781 200.587 103.784C200.448 103.787 201.868 103.167 200.431 103.033C199.195 102.922 197.023 105.096 195.235 104.607C195.092 104.57 193.649 102.704 193.719 102.596C193.774 102.518 196.028 102.131 195.707 101.591C195.665 101.53 194.234 101.532 194.055 101.131C193.831 100.642 193.259 95.8612 192.961 95.7392C192.197 95.4376 192.687 96.5308 192.194 96.4513C191.173 96.2841 187.443 94.8417 187.317 96.4963C187.926 96.5996 188.542 96.7028 189.163 96.806C185.729 96.9486 187.198 97.6652 186.709 97.9718C186.194 98.3034 186.346 96.8493 185.227 96.7031C185.006 96.6716 180.142 96.9317 180.264 97.5431C182.882 96.5954 181.908 98.3849 182.025 98.4182C182.487 98.5395 183.093 97.5361 183.728 97.5617C188.094 97.7573 183.707 99.312 184.727 99.7303C185.071 99.8711 185.773 99.0158 185.921 99.0611C186.403 99.2079 186.403 100.336 186.728 100.247C187.49 100.042 186.616 98.4386 186.677 98.3561C187.352 97.3631 190.059 98.6274 188.356 100.35C189.359 100.984 189.52 98.8749 190.297 99.7247C191.822 101.407 189.523 100.96 188.84 101.232C186.476 102.214 185.96 101.4 182.602 101.647C181.42 101.734 180.057 102.747 179.527 102.798C179.154 102.83 175.944 99.2314 175.81 104.812C174.636 104.26 172.571 100.559 171.325 100.714C170.185 100.854 170.527 102.833 170.419 102.908C170.255 103.026 168.806 102.854 168.332 103.127C167.77 103.45 168.036 104.207 167.157 104.504C164.992 105.24 165.004 103.223 164.793 103.09C162.175 101.541 163.302 104.423 162.718 104.645C162.132 104.851 154.591 103.635 152.89 104.329C153.546 103.936 154.217 103.543 154.901 103.151C153.705 101.874 152.453 103.903 152.471 101.648C152.221 105.285 149.728 102.806 149.054 102.887C148.765 102.92 148.768 103.541 148.398 103.56C146.963 103.642 143.812 103.08 143.008 103.375C139.627 104.652 148.105 107.097 148.804 107.241C147.449 107.18 139.786 107.82 143.288 109.651C143.833 109.933 144.796 108.325 145.113 108.268C147.228 107.894 145.538 109.318 145.7 109.46C146.01 109.691 147.319 108.306 147.69 108.482C147.811 108.538 147.002 109.845 148.991 109.911C147.958 111.176 142.521 110.015 141.751 110.294C141.475 110.394 143.091 113.178 138.345 110.393C138.395 110.649 138.445 110.905 138.495 111.16C135.825 111.193 133.093 111.214 130.351 111.218C130.664 110.643 132.261 109.524 130.307 109.703C129.2 109.806 129.969 111.14 129.87 111.174C129.426 111.362 123.408 111.054 119.233 110.825L120.291 110.855C115.811 110.734 111.404 110.568 109.887 110.596C108.767 110.616 105.629 111.579 105.379 111.591C103.974 111.658 98.9542 110.823 97.9769 110.939C97.3543 111.014 97.9094 112.123 97.3559 112.054C96.8399 111.988 97.4098 110.952 97.2576 110.903C95.9902 110.485 86.323 111.536 84.0885 110.455C85.4345 110.805 92.5213 108.947 92.3799 108.196C92.3563 108.094 90.701 107.234 90.3324 107.613C89.7667 106.68 87.7283 109.389 86.6552 108.804C86.5411 108.738 87.0533 107.197 85.1643 106.845C84.5247 106.725 82.7072 107.874 81.0501 106.449C78.5089 107.014 65.3648 104.46 64.4148 106.091C64.386 106.179 66.2198 106.833 64.9357 107.467C63.2239 108.309 64.8509 105.298 62.9161 104.95C62.6415 104.899 57.2082 104.977 57.0322 105.159C55.3273 106.813 59.9903 107.717 59.9338 107.915C59.7276 108.412 55.8231 108.549 55.6548 108.422C55.5083 108.291 58.824 106.146 54.9186 106.843C55.3518 107.136 55.7834 107.429 56.2136 107.721C54.3659 108.173 54.2761 106.584 53.8434 106.469C52.5137 106.103 50.8894 108.438 48.8726 105.373C48.3336 104.56 49.3272 103.729 49.2603 103.607C48.6195 102.516 47.6079 105.311 46.6551 103.149C46.5904 102.988 49.0579 101.832 44.8379 101.635C45.1184 101.851 45.3984 102.067 45.6779 102.283C45.079 102.709 40.7513 102.778 40.1995 102.644C38.5343 102.252 40.0708 100.866 38.3676 100.96C39.3548 103.006 34.2058 103.022 34.5834 101.319C33.7499 103.441 29.4879 101.567 27.4146 101.414C26.1376 101.321 23.4436 102.13 23.0316 101.999C22.5334 101.839 22.7578 100.376 21.8766 100.004C21.6332 99.8978 18.8705 100.84 16.5925 99.1981C16.1522 98.8816 15.3199 96.3381 16.2002 95.7578C17.6908 94.7641 20.3708 96.9141 20.4037 95.4378C20.4433 93.8591 16.6754 94.609 15.6971 94.3525C11.1248 93.1642 13.8776 91.6242 13.7869 91.1103C13.5301 89.8608 11.0334 89.7705 10.9306 89.6539C10.5225 89.1391 12.3503 88.255 12.4144 87.5037C12.4993 86.5257 10.1721 84.6322 10.7389 84.3303C11.5556 83.9024 13.6839 85.4899 13.841 85.4272C15.7427 84.5716 13.308 82.177 12.6894 81.0298C12.4982 80.6769 13.3596 80.1575 13.1915 80.0482C10.6219 78.3888 12.4715 83.2012 10.7194 82.7955C9.15117 82.4334 11.265 81.0514 11.2077 80.9661C11.1358 80.8721 9.24639 80.6927 8.97444 80.1507C8.85123 79.8804 13.9041 77.2404 13.7581 75.9317C12.1915 76.1378 10.6123 76.3427 9.02025 76.5463C8.98656 74.8484 11.1827 76.2112 11.4223 76.0486C11.9091 75.7229 10.6463 74.7991 10.7297 74.2671C10.7782 73.9285 12.3748 72.7941 11.0148 72.2219C10.5523 72.0246 9.46622 73.1576 7.81088 71.8561C13.9344 70.6234 9.79731 69.4544 9.64578 68.8457C9.50255 68.2374 12.47 66.9778 8.94303 67.0442C8.96423 63.7442 9.07145 66.0075 10.102 65.4809C11.3576 64.8329 8.60525 63.6035 13.0049 64.6559C12.8392 63.1021 9.24683 63.025 9.06395 62.8919C8.90577 62.7719 9.74073 62.0552 9.47006 61.7836C6.29414 58.6312 8.51158 60.1108 7.64559 58.1584C7.57132 57.9842 4.43952 57.1123 6.86595 56.9623C11.2502 56.6875 13.0096 58.9675 13.9715 54.3352C10.8402 52.1402 6.75547 54.948 5.76117 54.9467C4.2402 54.9402 5.86231 54.0709 5.68925 53.7941C5.6306 53.7046 4.31283 53.7138 4.30479 53.6375C3.57337 50.0279 10.084 53.8832 12.2523 53.3735C11.7131 52.8108 11.1724 52.2479 10.6301 51.6849C11.4046 51.7038 12.176 51.7225 12.9443 51.7408C9.33355 50.4785 12.8415 51.3287 13.8956 48.4914C14.1332 47.854 11.6808 48.8415 14.5048 47.1816C12.5127 46.6619 13.1872 46.106 11.3087 46.8236C11.4289 45.671 15.5824 44.5787 17.26 44.0694C11.5771 42.4749 14.6533 46.885 9.78915 44.3827C8.79714 45.7661 11.1763 45.6108 10.9746 45.8371C10.2212 46.6497 8.69607 45.2177 6.57056 48.0902C6.22409 48.5619 7.50211 50.1375 5.49756 49.9589C5.27297 49.9368 4.06768 48.5841 4.09247 48.4919C4.31001 47.494 5.55483 47.9381 5.63052 47.5208C5.69961 47.1256 4.27551 47.2901 4.28067 47.1798C4.30211 45.9163 5.47786 46.7598 5.32306 46.3557C4.98363 45.4768 0.0825114 42.4958 6.63694 43.6397C1.07239 44.7751 5.85893 44.9956 8.0264 44.5599C8.57683 44.4511 8.75411 43.7051 9.53872 43.484C10.5386 43.1968 11.7112 43.6203 12.231 43.5087C12.7928 43.3849 9.73466 41.4412 14.2636 42.2084C12.0364 40.3178 7.84779 41.9925 5.61741 40.6273C1.15442 37.871 9.00001 37.7454 9.81192 37.5426C10.0307 37.4879 9.36203 36.4328 9.5088 36.378C9.73283 36.2942 14.1662 36.9963 14.6332 36.1758C15.1109 35.3571 13.0149 36.1311 12.9216 35.2466C12.8655 34.652 18.2361 33.8782 15.3766 33.3263C13.4186 32.9483 9.5944 35.1289 9.12426 32.5457C12.0553 32.4876 14.988 32.4277 17.9445 32.3671C16.3783 31.3138 14.8406 30.2613 13.287 29.2074C16.5717 29.069 19.3713 30.3109 22.5616 29.0786C15.2215 25.5879 25.1283 26.7201 25.247 26.3452C25.298 26.1209 22.477 23.4478 22.0181 22.9613C24.6936 22.1242 32.6445 22.0416 28.1564 18.6937C28.9697 19.4399 31.0853 17.8022 31.0634 17.6696C30.8843 16.2804 26.38 16.9523 27.1666 15.7441C28.086 14.3426 29.1713 16.3599 30.4657 16.2669C37.1449 15.7768 35.6738 8.4977 42.2525 9.95198C42.1317 9.68962 42.0107 9.42724 41.8897 9.16485C49.0986 9.91523 56.2891 10.651 63.4688 11.3694C66.396 9.29661 73.9321 8.2717 77.6013 8.65921C78.3178 8.73563 81.9371 10.0317 82.1837 10.2432C82.675 10.6502 79.8931 10.6906 81.1208 11.4656C81.3651 11.6258 87.4989 12.3426 87.1134 11.0962C86.4126 10.9278 84.2625 11.4658 83.9131 11.1623C81.5093 9.01113 100.373 11.3428 101.303 10.5209C100.902 10.1085 100.499 9.69592 100.092 9.28313C101.28 9.51804 102.441 9.75116 103.632 9.98424ZM44.139 106.498C43.3568 107.697 41.5252 106.684 40.4443 106.98C38.9336 107.395 36.1309 112.02 37.4649 107.314C39.7035 107.044 41.9048 106.771 44.139 106.498ZM76.3654 109.719C74.8947 108.998 76.1653 106.386 77.3365 107.538C77.4649 107.669 78.3423 110.689 76.3654 109.719ZM60.8592 107.82C60.9244 107.788 62.1986 107.912 62.2401 107.956C63.3401 109.072 59.4961 108.689 60.8592 107.82ZM135.771 109.051C134.098 109.115 135.209 111.569 136.322 110.606C136.391 110.545 135.882 109.048 135.771 109.051ZM134.564 108.95C133.312 106.745 130.446 111.037 132.614 110.669C132.858 110.633 134.603 109.057 134.564 108.95ZM71.1007 108.452C71.3032 107.629 72.8328 108.092 73.4745 108.316C73.4289 109.073 71.7553 108.386 71.1007 108.452ZM110.203 109.553C110.301 108.905 104.869 108.794 104.484 109.642C105.344 109.303 110.14 110.14 110.203 109.553ZM122.756 108.974C122.607 108.854 120.891 108.949 120.93 109.528C121.685 110.316 123.323 109.511 122.756 108.974ZM150.828 109.862C150.923 109.719 149.623 106.032 152.86 108.501C153.327 108.862 151.622 109.79 151.786 109.924C152.134 110.187 152.407 110.311 152.632 110.337C151.126 110.614 149.466 110.726 149.342 110.501C148.647 109.438 150.768 109.922 150.828 109.862ZM165.201 107.351C165.557 106.758 167.502 107.102 167.96 107.353C168.038 107.4 167.675 108.967 168.581 108.86C169.313 108.772 168.235 107.15 169.665 107.424C171.125 107.7 169.157 108.824 169.287 108.907C169.477 109.017 171.655 108.319 171.575 109.254C171.528 109.946 169.179 109.451 168.576 109.591C167.825 109.771 168.715 110.937 167.475 110.674C166.702 110.509 167.157 108.484 166.995 108.38C166.889 108.296 164.081 109.429 165.206 107.357C165.204 107.355 165.203 107.353 165.201 107.351ZM153.044 110.254C152.928 110.321 152.793 110.355 152.632 110.337C152.769 110.311 152.907 110.282 153.044 110.254ZM48.4539 105.803C49.1944 106.464 46.8765 107.162 46.0364 106.303C46.0545 105.641 48.3391 105.701 48.4539 105.803ZM154.506 108.625C156.772 109.17 155.101 109.844 153.044 110.254C153.692 109.883 153.729 108.442 154.506 108.625ZM90.3324 107.613C90.4235 107.767 90.4763 108.006 90.4706 108.394C90.2322 107.961 90.2172 107.732 90.3324 107.613ZM95.6015 108.483C97.4438 107.361 93.7813 107.289 93.7654 108.134C93.7694 108.454 95.532 108.528 95.6015 108.483ZM137.951 109.229C137.788 109.108 140.541 105.615 136.615 108.184C138.639 108.662 136.509 108.991 136.498 109.303C136.574 110.205 140.02 109.435 140.798 109.841C141.419 108.25 138.547 109.627 137.955 109.229C137.954 109.229 137.952 109.229 137.951 109.229ZM190.799 108.471C190.373 109.409 188.904 109.095 187.934 109.031C188.38 108.093 189.893 108.408 190.799 108.471ZM441.711 109.11C435.152 109.98 434.311 106.145 440.303 107.662C440.42 107.694 442.109 108.722 441.711 109.11ZM385.392 108.097C384.767 106.425 386.842 106.158 388.17 106.848C388.472 107.004 389.59 108.697 388.313 109.028C388.357 107.002 386.374 106.227 385.392 108.097ZM155.804 107.575C156.444 106.471 158.563 107.297 159.568 107.479C158.948 108.388 156.712 107.939 155.804 107.575ZM420.15 107.105C419.456 106.978 418.988 108.432 419.107 108.553C419.643 109.108 420.941 107.933 420.15 107.105ZM149.221 107.287C149.12 106.62 151.862 106.029 152.027 107.679C151.435 107.549 149.262 107.706 149.221 107.287ZM188.982 107.956C188.569 107.615 190.742 107.025 191.358 107.366C191.303 108.075 189.279 108.179 188.982 107.956ZM409.016 107.595C408.393 107.468 406.841 107.429 406.67 108.017C406.456 108.752 408.731 108.502 409.016 107.595ZM524.264 106.343C524.342 106.607 521.949 108.51 520.88 108.028C518.855 107.107 524.182 106.156 524.264 106.343ZM426.695 106.357C428.646 107.741 426.48 106.401 426.565 107.857C427.876 107.91 431.149 107.982 428.9 106.55C428.462 106.273 427.307 106.452 426.695 106.357ZM424.898 105.87C424.689 106.341 423.287 107.828 424.499 107.722C425.06 107.67 425.964 106.018 424.898 105.87ZM509.419 106.99C507.673 105.7 515.685 106.392 515.918 106.618C516.04 106.737 516.12 106.85 516.165 106.945C516.46 106.536 517.976 106.463 518.152 107.496C517.697 107.411 516.456 107.502 516.312 107.387C516.25 107.338 516.204 107.293 516.172 107.246C515.635 108.143 509.755 107.234 509.419 106.99ZM496.121 105.662C498.129 103.761 498.477 106.994 498.306 107.098C496.13 108.421 497.549 106.037 497.482 105.925C497.332 105.739 495.778 106.846 496.128 105.662C496.125 105.662 496.123 105.662 496.121 105.662ZM506.689 106.458C506.771 106.415 508.456 106.516 508.525 106.567C509.905 107.653 505.14 107.375 506.689 106.458ZM175.947 105.211C177.144 105.545 175.949 106.722 175.168 106.286C175.105 106.243 174.899 104.916 175.947 105.211ZM423.94 106.19C423.681 105.965 416.499 105.115 416.937 106.912C417.54 106.7 425.68 107.627 423.94 106.19ZM370.548 105.729C371.809 105.744 370.432 107.437 369.761 106.805C369.512 106.571 370.23 105.727 370.548 105.729ZM145.576 105.675C144.196 106.577 144.541 103.461 145.702 104.556C145.748 104.599 145.631 105.64 145.576 105.675ZM380.611 106.71C376.281 107.734 377.297 102.363 382.946 104.179C382.769 104.419 382.592 104.658 382.415 104.897C388.954 105.706 382.856 105.276 381.263 105.576C380.657 105.69 381.165 106.587 380.616 106.716C380.614 106.714 380.613 106.712 380.611 106.71ZM363.943 105.622C359.747 101.806 367.735 104.295 370.019 103.8C367.797 105.373 364.919 105.132 368.838 106.747C363.108 107.055 365.499 105.538 365.268 105.412C364.998 105.27 364.126 105.786 363.943 105.622ZM374.976 105.604C375.227 105.493 377.035 106.27 377.689 106.144C376.784 107.446 373.362 106.359 374.976 105.604ZM482.178 106.546C482.329 105.526 482.704 104.774 484.146 105.155C483.7 105.668 482.78 106.109 482.178 106.546ZM42.9928 101.068C41.984 100.948 40.0376 100.472 40.5906 101.572C40.6474 101.666 42.9592 101.669 42.9928 101.068ZM403.186 105.356C402.972 105.23 397.552 105.144 399.423 106.271C399.984 106.611 404.928 106.468 403.186 105.356ZM431.392 105.493C430.935 105.483 429.082 105.674 429.043 105.916C428.917 106.75 431.192 106.292 431.392 105.493ZM38.0129 99.7886C37.8736 99.6762 34.8445 99.7196 35.1508 100.23C35.7374 101.195 38.4423 100.174 38.0129 99.7886ZM180.392 102.864C180.641 102.829 180.963 103.94 181.05 103.953C181.223 103.971 185.979 103.586 184.148 104.994C183.804 105.23 177.13 104.621 176.254 104.471C175.927 102.946 178.778 104.422 179.515 104.272C179.639 104.244 179.723 102.971 180.39 102.87C180.391 102.868 180.391 102.866 180.392 102.864ZM489.664 105.47C489.867 104.502 495.312 103.862 495.25 105.034C493.386 105.179 491.524 105.325 489.664 105.47ZM486.904 105.309C485.745 104.625 488.459 104.399 489.26 104.701C489.269 105.352 487.073 105.41 486.904 105.309ZM421.079 101.876C420.53 102.112 422.218 103.524 421.84 103.799C421.598 103.97 420.372 103.44 419.981 103.881C419.87 104.022 421.12 105.349 421.482 105.292C421.996 105.215 421.498 104.171 422.059 104.164C423.919 104.142 425.547 104.887 427.286 104.871C427.443 104.867 426.227 104.129 427.564 104.14C427.771 104.14 429.013 105.239 430.618 105.077C434.173 101.676 436.756 105.016 441.245 103.791C441.074 103.471 437.72 102.611 437.524 102.579C433.795 102.019 427.022 101.955 423.124 101.947C422.118 101.944 422.605 102.664 422.169 102.69C421.824 102.709 422.234 101.376 421.079 101.876ZM43.5582 100.356C43.1452 99.0043 41.4253 99.768 40.378 99.6499C40.6916 100.867 42.5249 100.013 43.5582 100.356ZM462.478 104.275C461.948 104.327 460.31 103.925 460.175 104.326C460 104.85 462.365 105.18 462.478 104.275ZM206.609 103.437C206.659 103.401 207.966 103.479 208.017 103.522C208.108 103.606 208.169 103.682 208.202 103.75C208.248 103.848 208.243 103.929 208.201 103.996C207.873 104.481 205.523 104.181 206.609 103.437ZM237.223 103.833C238.185 103.672 239.143 103.259 239.465 104.341C238.849 104.173 237.121 104.585 237.223 103.833ZM279.337 103.917C279.141 102.501 282.072 103.424 282.602 103.551C282.409 104.18 279.49 104.936 279.337 103.917ZM481.968 102.105C483.751 102.188 483.375 100.045 484.507 101.015C484.689 101.179 485.291 105.642 483.329 103.97C482.976 103.669 484.356 102.609 481.968 102.105ZM383.868 104.225C384.323 103.289 385.743 103.568 386.705 103.643C386.488 104.338 384.55 104.158 383.868 104.225ZM32.5641 98.4564C31.8024 97.0971 27.873 97.8867 28.7901 98.8056C28.9268 98.9264 32.0297 98.3809 32.5641 98.4564ZM160.454 103.377C162.064 102.359 158.802 101.991 157.692 102.99C158.215 102.932 160.328 103.444 160.454 103.377ZM269.214 103.125C269.29 103.083 270.99 103.187 271.068 103.238C272.46 104.328 267.648 104.039 269.214 103.125ZM227.145 102.076C227.779 101.223 231.755 101.93 232.635 102.79C231.793 104.04 226.389 103.143 227.145 102.076ZM474.647 102.713C475.914 102.669 477.117 102.932 478.283 103.303C478.037 104.024 474.78 103.251 474.647 102.713ZM275.39 103.049C275.48 103.055 275.567 103.137 275.653 103.146C275.564 103.115 275.476 103.08 275.39 103.049ZM446.244 102.202C445.176 101.918 445.398 103.239 445.464 103.279C446.267 103.707 447.453 102.524 446.244 102.202ZM42.4201 98.3403C42.0888 97.1315 40.2752 97.9723 39.2469 97.6398C39.5095 98.5948 41.5685 98.4259 42.4201 98.3403ZM359.444 103.177C358.102 101.883 363.564 100.386 364.713 101.22C364.806 102.018 359.633 103.354 359.444 103.177ZM155.502 101.513C155.443 100.578 153.033 101.666 153.536 102.115C153.834 102.402 155.585 102.095 155.502 101.513ZM367.432 101.766C367.941 101.482 369.13 102.404 368.711 102.966C368.173 103.685 367.301 101.848 367.432 101.766ZM413.275 101.04C413.052 100.897 410.063 101.855 411.297 102.808C412.153 103.471 412.291 102.12 412.492 102.116C412.716 102.121 417.527 103.775 413.275 101.04ZM328.989 102.334C330.127 101.976 331.521 102.395 332.688 102.37C332.22 102.948 329.472 103.102 328.989 102.334ZM164.407 101.393C164.155 101.013 156.553 100.677 160.846 101.902C161.134 101.972 165.224 102.548 164.407 101.393ZM481.968 102.105C481.743 102.094 481.484 102.049 481.183 101.957C481.482 101.993 481.742 102.057 481.968 102.105ZM461.763 101.961C462.171 101.282 460.114 101.099 459.507 101.461C459.32 102.292 461.706 102.057 461.763 101.961ZM332.778 101.422C333.457 101.034 334.691 101.45 335.536 101.406C335.391 102.038 333.07 102.064 332.778 101.422ZM284.746 100.64C286.098 101.018 287.779 100.848 287.806 100.075C287.834 100.196 287.9 100.324 288.01 100.454C288.12 100.581 289.588 100.225 290.228 100.49C293.998 102.065 275.608 101.383 286.253 99.2198C285.75 99.6931 285.247 100.166 284.746 100.64ZM221.779 100.233C220.989 99.2882 218.804 100.457 219.369 100.831C219.754 101.087 222.562 101.184 221.779 100.233ZM251.447 99.7839C251.213 99.6152 249.098 100.268 249.045 100.764C250.249 101.29 252.504 100.567 251.447 99.7839ZM215.837 99.1025C215.364 98.9581 214.746 100.473 214.797 100.539C215.293 101.096 216.629 99.9515 215.837 99.1025ZM478.279 98.0154C477.56 97.5807 475.269 98.6791 474.771 99.6814C474.678 99.4876 474.428 99.2348 473.97 98.9315C473.972 98.9315 473.973 98.9315 473.974 98.9315C473.363 98.5266 454.817 98.082 467.249 100.014C467.638 100.076 467.106 99.176 468.692 99.3347C468.797 99.3462 468.849 100.081 469.173 100.117C469.921 100.194 473.883 100.657 474.675 100.066C474.681 100.202 474.733 100.332 474.842 100.45C475.816 101.51 478.837 98.3506 478.279 98.0154ZM255.637 99.6614C255.214 99.388 253.901 99.6428 253.748 100.291C254.414 100.61 256.607 100.299 255.637 99.6614ZM164.206 98.73C163.347 98.1858 161.137 99.152 161.795 99.691C162.23 100.023 165.189 99.3551 164.206 98.73ZM242.164 99.9662C247.167 100.749 243.357 99.9082 244.127 98.9601C243.47 99.2955 242.815 99.6308 242.164 99.9662ZM501.197 100.471C500.408 100.253 501.335 98.3769 502.204 99.3948C502.477 99.718 501.638 100.59 501.197 100.471ZM536.85 99.8888C536.177 98.2255 539.465 99.2028 538.184 100.344C538.124 100.382 536.898 99.9521 536.85 99.8888ZM511.939 99.2092C511.403 100.342 511.055 100.476 509.548 100.196C511.779 99.8771 509.709 98.8754 511.939 99.2092ZM287.792 99.9533C287.8 99.9991 287.808 100.033 287.806 100.075C287.797 100.033 287.792 99.994 287.792 99.9533ZM211.14 99.373C210.521 98.4104 208.808 98.4715 209.313 99.44C209.36 99.5297 210.879 100.081 211.14 99.373ZM474.771 99.6814C474.853 99.8533 474.811 99.9644 474.675 100.066C474.668 99.9377 474.704 99.8167 474.771 99.6814ZM220.512 98.6378C220.449 99.3533 223.126 99.6438 223.211 99.56C224.71 98.3253 221.657 98.6 220.512 98.6378ZM146.497 97.4319C146.359 97.5037 147.193 99.3692 147.763 98.6565C148.201 98.1035 147.002 97.1582 146.497 97.4319ZM517.062 98.7478C517.9 98.7491 519.079 98.7483 519.297 99.6259C518.735 99.4912 517.045 99.3918 517.062 98.7478ZM535.563 98.6839C534.574 99.7157 532.31 99.7127 530.867 99.5427C530.84 98.1846 534.635 99.0033 535.563 98.6839ZM480.552 98.5219C480.483 98.4666 478.382 98.0612 478.669 98.9704C479.088 100.304 481.145 99.0163 480.552 98.5219ZM150.618 98.4934C151.573 97.8847 149.465 95.9218 148.39 97.3869C147.865 98.1381 150.454 98.5957 150.618 98.4934ZM205.705 98.0862C204.45 98.6049 207.55 99.5604 208.008 98.6123C207.419 98.5327 206.149 97.9026 205.705 98.0862ZM247.968 97.3059C244.113 94.5523 246.202 99.5602 246.886 99.1227C246.983 99.0602 248.062 97.3707 247.968 97.3059ZM23.0983 92.5055C22.5199 92.8581 24.5371 94.3402 24.8484 93.4459C25.0432 92.8864 23.47 92.281 23.0983 92.5055ZM306.806 99.2161C306.64 99.2246 306.476 99.2334 306.314 99.241C306.436 99.1964 306.596 99.1821 306.806 99.2161ZM194.454 94.3402C197.247 98.231 196.901 95.2448 197.156 95.2629C197.664 95.3081 198.852 96.3628 199.84 96.1974C198.708 96.6258 197.594 97.0541 196.496 97.4823C197.326 97.7684 205.037 99.2426 205.181 98.615C205.412 97.7226 203.012 97.9885 202.949 97.9093C202.851 97.7965 202.497 95.3091 202.279 95.2133C201.881 95.0603 195.534 94.9664 194.454 94.3402ZM239.789 97.7085C240.412 98.0061 240.587 98.9913 240.879 98.757C240.979 98.6768 240.998 97.7377 241.338 97.496C240.82 97.5668 240.304 97.6377 239.789 97.7085ZM189.5 97.7829C188.743 96.6295 192.201 97.0921 192.314 97.2213C192.888 98.0036 190.166 98.7258 189.5 97.7829ZM219.18 97.7984C219.046 97.7309 216.378 97.3597 216.402 97.9965C217.087 98.4855 220.692 98.6439 219.18 97.7984ZM241.758 97.4333C242.7 97.546 244.5 98.4976 244.299 97.0828C244.297 97.0828 244.296 97.0828 244.294 97.0828C243.444 97.1996 242.599 97.3165 241.758 97.4333ZM153.938 95.5649C152.218 93.2829 152.981 96.1426 154.561 96.8957C155.063 95.8928 154.222 95.9362 153.938 95.5649ZM148.3 93.7826C147.802 93.3696 142.746 93.7034 143.459 94.9102C143.73 95.3421 146.714 94.3354 146.823 94.4194C147.024 94.5456 146.071 95.8449 147.621 95.6152C147.537 95.1667 148.468 93.9213 148.3 93.7826ZM152.512 94.0981C150.78 92.3544 150.301 95.5048 151.654 95.538C152.206 95.5535 152.745 94.3494 152.512 94.0981ZM159.668 94.4818C159.083 94.1737 157.342 93.7106 156.193 94.7429C157.731 94.8571 159.3 94.9704 160.834 95.0819C161.022 94.4893 160.205 94.753 159.663 94.4817C159.665 94.4818 159.666 94.4818 159.668 94.4818ZM545.975 90.5894C544.597 89.6936 547.772 89.3503 547.906 89.5704C548.305 90.3011 546.591 90.9896 545.975 90.5894ZM13.7807 63.2969C13.419 62.9207 13.2317 61.7346 12.3601 62.3059C13.1631 63.2159 13.9487 64.1249 14.7589 65.035C15.5243 63.0844 14.1694 63.7114 13.7807 63.2969ZM10.9284 55.8783C11.0504 55.8364 10.5558 52.7507 11.9965 54.8684C12.9677 56.2985 7.2254 57.344 6.27298 55.9363C7.4454 55.3677 9.86152 56.2158 10.9284 55.8783ZM1.70222 42.1457C1.65142 41.899 3.81928 41.6565 4.05581 41.841C5.30894 42.8144 1.99094 43.4688 1.70222 42.1457ZM8.53179 43.0911C7.55781 42.4458 9.80301 42.1804 10.4475 42.5559C10.4782 43.1272 8.68482 43.1858 8.53179 43.0911ZM532.031 46.3293C530.935 44.2524 529.955 48.7234 531.641 47.8226C531.721 47.7802 532.077 46.431 532.031 46.3293ZM3.96587 39.1792C4.93802 39.8251 2.69473 40.0891 2.04395 39.7123C2.01337 39.1417 3.819 39.0845 3.96587 39.1792ZM531.259 41.3816C529.804 39.8871 530.317 44.9031 530.498 45.1052C531.247 45.9035 533.816 43.9347 534.341 43.4453C530.495 44.198 531.945 42.0859 531.259 41.3816ZM524.553 44.3938C523.205 44.9289 526.65 45.9523 527.308 44.554C526.638 44.6209 524.936 44.2391 524.553 44.3938ZM516.361 42.785C515.636 42.6054 513.479 42.1752 513.118 42.9644C513.909 42.8215 516.055 43.5971 516.361 42.785ZM514.719 40.4201C513.586 39.3477 513.314 42.4723 514.621 41.5416C514.672 41.5056 514.761 40.4797 514.719 40.4201ZM508.348 39.292C507.603 38.0493 506.753 41.0753 507.96 41.157C508.319 41.1756 508.427 39.4344 508.348 39.292ZM529.438 35.9853C528.373 35.4517 527.001 37.6187 529.275 37.8567C528.476 38.1878 527.677 38.5189 526.879 38.8501C529.857 40.0647 529.639 37.0595 530.494 37.1838C531.69 37.3603 531.596 39.8402 531.356 40.6189C532.336 39.0996 536.503 39.0753 538.906 38.786C536.794 38.1484 533.361 37.043 531.272 36.639C530.676 36.522 530.097 37.2021 529.589 37.1261C528.774 37.0005 529.498 36.0212 529.442 35.9853C529.441 35.9853 529.439 35.9853 529.438 35.9853ZM499.967 39.2468C497.784 37.8391 499.164 40.8783 500.398 40.3364C500.451 40.2946 500.021 39.2812 499.967 39.2468ZM1.57039 29.8031C4.42288 31.2272 2.19102 32.7958 8.4269 30.5646C5.77311 32.2373 8.21776 31.857 7.67979 32.5597C7.24958 33.1155 5.76667 32.5582 6.58182 33.7662C5.49024 32.4411 0.521043 32.5269 0.2935 32.3084C0.295602 32.3085 0.297704 32.3086 0.299807 32.3087C0.17182 32.1799 0.65992 29.3498 1.57039 29.8031ZM516.351 34.8379C515.622 31.1504 515.336 37.0033 513.903 33.947C511.995 38.3851 519.174 33.9478 520.047 37.6964C512.241 37.2607 525.205 41.4108 519.755 35.7993C524.246 37.836 521.227 35.1044 521.92 34.3894C522.663 33.6277 525.194 34.4555 525.066 33.082C525.064 33.082 525.063 33.082 525.062 33.082C523.512 33.1781 521.962 33.2742 520.407 33.3703C521.928 36.3333 518.753 35.4448 517.677 33.0306C517.235 33.6331 516.793 34.2355 516.351 34.8379ZM525.135 37.6195C524.982 37.5517 521.612 37.9669 521.828 38.5616C522.281 38.9409 527.063 38.4862 525.135 37.6195ZM539.987 36.9723C538.775 36.9651 536.903 36.387 536.244 37.5042C537.454 37.5117 539.327 38.0901 539.987 36.9723ZM477.589 36.7587C476.045 37.6754 480.801 37.9474 479.425 36.8614C479.357 36.8103 477.665 36.7159 477.589 36.7587ZM512.84 35.3954C511.271 34.2685 512.012 37.8555 513.175 36.9208C513.242 36.8657 512.912 35.4468 512.84 35.3954ZM3.95119 29.4937C4.09423 28.6215 8.29013 29.4616 9.0342 29.4926C8.5709 30.2867 3.77015 30.4933 3.95119 29.4937ZM542.119 33.6845C539.707 30.5245 536.439 34.1744 536.08 34.0947C535.724 34.0134 536.283 32.632 536.202 32.595C536.019 32.5175 532.214 32.6334 532.031 32.7296C531.899 32.8045 532.587 34.7457 531.802 35.3572C533.336 34.2542 540.277 34.9443 540.638 34.7292C540.917 34.5574 538.813 32.5189 542.115 33.6845C542.116 33.6845 542.118 33.6845 542.119 33.6845ZM535.185 33.6717C536.134 34.4854 533.47 34.5872 532.825 34.2869C531.393 33.615 535.062 33.5753 535.185 33.6717ZM528.778 32.9218C528.474 32.7393 525.732 32.5735 525.499 33.4794C526.796 34.6545 529.468 33.3471 528.778 32.9218ZM498.257 33.0429C497.548 33.1589 495.584 32.4627 495.472 33.2543C496.188 33.1388 498.146 33.8345 498.257 33.0429ZM18.6901 23.344C17.5465 22.6224 20.2887 22.4916 21.0577 22.8485C21.0759 23.3782 18.7898 23.4062 18.6901 23.344ZM512.574 27.8265C512.16 27.5858 503.54 28.1862 502.337 28.5568C503.514 29.1555 512.057 29.2018 512.436 28.9096C512.549 28.8221 512.628 27.8644 512.574 27.8265ZM531.186 27.4614C531.975 26.2957 532.491 27.6938 532.59 27.7114C533.567 27.8897 535.593 27.6269 535.149 28.7496C533.424 28.2966 529.614 29.7762 531.186 27.4614ZM497.646 27.7683C494.728 28.2008 500.332 29.4291 499.597 28.2106C499.55 28.137 497.948 27.7229 497.646 27.7683ZM513.535 27.4868C514.174 26.545 522.797 27.3574 524.172 27.3588C522.937 29.0961 521.939 27.7765 520.273 27.8651C519.824 27.891 519.944 28.6138 519.896 28.6149C519.118 28.6484 519.7 27.8136 519.22 27.801C518.916 27.7953 512.627 28.8139 513.535 27.4868ZM531.637 26.6539C532.119 25.9857 537.497 25.7008 537.711 25.8784C539.329 27.1991 532.056 26.8865 531.637 26.6539ZM512.746 25.9423C513.67 23.9232 517.945 25.2755 515.019 26.282C514.74 26.3735 513.557 25.4983 512.746 25.9423ZM497.958 25.8457C497.818 25.7863 494.765 25.3825 494.71 26.0249C495.154 26.2746 499.593 26.4988 497.958 25.8457ZM499.535 23.6731C499.461 23.6885 500.174 24.9258 498.748 24.769C498.629 24.7542 498.41 23.3621 496.614 23.8716C496.249 23.9766 495.683 24.8975 495.724 24.9547C497.601 27.1395 503.216 22.9555 499.535 23.6731ZM531.735 25.5259C531.445 24.9383 532.144 23.1943 532.775 24.0775C533.045 24.4589 532.541 25.5055 531.735 25.5259ZM488.292 25.2811C490.06 24.2236 484.51 24.0232 484.227 24.2939C484.407 24.9528 488.114 25.3844 488.292 25.2811ZM21.8464 15.3291C21.845 15.329 21.8437 15.3289 21.8423 15.3289C23.318 15.6435 22.3521 16.4757 22.4202 16.5068C25.5197 17.9573 24.7736 15.9239 25.2792 15.7139C26.3607 15.2587 26.049 17.6698 27.8988 16.7559C24.8665 18.0904 27.5881 17.6033 27.6313 18.4687C27.7724 21.9989 23.8093 16.6284 22.2841 17.2892C22.0735 17.3808 23.536 18.5791 22.9928 18.8716C21.2169 19.8187 16.2481 14.1265 21.8464 15.3291ZM533.261 23.9237C533.956 22.8902 539.194 23.8926 537.805 24.744C537.583 24.8806 532.246 25.4301 533.261 23.9237ZM288.415 22.2652C289.685 21.3732 286.749 20.3162 286.21 21.0113C285.94 21.3576 287.856 22.6567 288.415 22.2652ZM267.961 18.3957C266.463 18.5737 264.888 22.2997 266.742 21.7255C266.939 21.6627 268.131 18.9135 267.961 18.3957ZM366.219 20.449C364.667 19.1149 364.758 21.5916 365.898 21.5575C366.301 21.5458 366.268 20.4912 366.219 20.449ZM306.568 20.7062C306.41 20.6195 304.605 20.7749 304.67 21.3442C305.334 21.6867 307.581 21.3011 306.568 20.7062ZM366.714 20.0968C365.791 20.5425 367.376 22.335 368.508 20.5852C367.933 20.7284 366.808 20.0513 366.714 20.0968ZM509.52 20.469C508.742 21.4859 506.542 21.1785 505.28 21.3533C505.144 20.0357 508.616 20.7078 509.52 20.469ZM274.314 19.9101C272.906 20.8356 275.917 21.6025 275.645 20.3745C275.606 20.3077 274.369 19.8706 274.314 19.9101ZM416.637 19.9874C415.606 20.773 418.878 21.831 417.978 20.4493C417.933 20.3929 416.693 19.9437 416.637 19.9874ZM430.921 20.4467C430.137 20.1813 426.806 20.262 428.102 21.0291C428.303 21.147 430.861 21.1665 430.921 20.4467ZM25.4137 14.7709C25.0675 13.3985 27.4572 13.8406 27.8049 14.0946C27.9335 14.1996 25.8656 16.5568 25.4137 14.7709ZM356.065 20.2298C355.256 20.3985 353.186 20.075 352.804 20.7847C353.798 20.6385 356.325 21.6444 356.065 20.2298ZM280.79 19.9175C279.541 18.4442 277.425 18.5849 277.945 20.5076C280.288 20.3837 277.652 18.7799 280.79 19.9175ZM371.917 18.5174C371.267 18.4047 370.768 20.2498 370.842 20.3368C371.544 21.1644 372.563 19.2358 371.917 18.5174ZM323.265 19.9918C323.228 19.2031 321.166 19.5585 321.441 20.0664C321.53 20.2369 323.293 20.63 323.265 19.9918ZM482.285 20.019C481.329 19.2991 484.251 18.5956 485.106 19.436C485.527 20.6469 482.406 20.1017 482.285 20.019ZM389.904 18.9892C390 17.8189 386.768 18.479 388.041 19.4497C388.359 19.6926 389.87 19.3806 389.904 18.9892ZM421.015 17.5983C418.838 18.9933 427.982 19.9868 425.579 18.2469C425.409 18.123 421.213 17.4805 421.015 17.5983ZM435.965 18.474C435.591 18.3201 435.778 14.3874 437.329 15.9043C437.533 16.101 436.58 17.1404 436.746 17.3782C436.843 17.5137 440.22 18.0668 440.377 17.9751C440.545 17.8708 440.348 16.6103 440.518 16.469C440.709 16.311 442.792 17.4187 443.886 17.431C445.947 17.4522 446.172 16.4031 446.341 16.3997C446.836 16.3928 447.658 17.1379 448.65 17.1371C453.648 17.1297 461.353 16.2416 465.316 18.4663C461.778 17.5727 458.413 18.5199 454.879 18.8109C455.91 16.6212 449.696 20.4974 453.33 17.9711C451.668 18.5191 437.178 18.9545 435.969 18.474C435.968 18.474 435.967 18.474 435.965 18.474ZM262.086 17.2788C263.014 15.9385 258.259 16.228 257.867 17.7803C258.48 17.9976 261.965 17.4307 262.086 17.2788ZM283.823 14.053C284.26 13.822 284.672 11.1982 286.97 12.5337C286.972 12.5337 286.974 12.5337 286.976 12.5337C287.649 12.9237 286.88 13.5618 287.003 13.7899C287.047 13.8831 289.15 15.1927 287.401 15.3993C284.743 15.7164 287.153 13.4463 285.739 13.4158C285.563 13.4133 282.899 14.8288 283.055 15.141C283.07 15.1773 283.87 14.8784 284.002 15.0083C284.501 15.4965 284.256 16.3156 284.326 16.3548C284.551 16.4552 288.792 15.067 289.419 16.2875C289.604 16.6812 282.651 17.5751 282.401 17.37C282.232 17.2408 282.308 14.9659 282.134 14.7418C282.061 14.6302 279.235 15.477 278.871 15.267C278.765 15.2063 278.684 15.1409 278.625 15.087C279.047 15.7918 276.507 15.7358 276.589 14.9417C276.632 14.6297 278.379 14.8141 278.442 14.8688C278.47 14.8919 278.494 14.9238 278.516 14.9458C278.164 14.0874 284.067 14.1381 282.792 12.8589C284.488 12.1629 282.547 14.7311 283.823 14.053ZM292.053 12.6648C291.877 12.9038 291.702 13.1428 291.527 13.3817C294.48 12.8014 297.962 13.9591 301.418 13.956C302.285 13.957 301.29 12.4921 302.426 12.8937C303.337 13.2156 304.348 14.5745 303.85 14.8763C303.728 14.9516 301.87 14.0647 300.946 14.1539C298.167 14.418 298.863 15.674 298.701 15.7077C298.521 15.7431 296.772 14.8577 295.823 14.8953C293.423 14.9928 292.397 15.7615 289.096 14.7488C290.994 13.9252 289.982 12.1267 292.053 12.6648ZM403.625 15.445C403.738 14.6552 405.697 15.3568 406.41 15.241C406.297 16.0328 404.335 15.3292 403.625 15.445ZM112.79 12.2996C112.177 13.5819 116.522 14.0078 115.401 12.9016C115.168 12.6571 113.345 12.3232 112.79 12.2996ZM133.602 13.7657C134.171 13.4289 131.979 12.411 131.926 13.4119C131.93 13.7345 133.518 13.8097 133.602 13.7657ZM330.742 13.9953C330.863 13.9549 332.516 14.2454 332.565 14.3114C333.671 15.6889 328.19 14.8873 330.742 13.9953ZM157.226 12.7402C155.159 13.5575 161.368 14.0225 159.477 12.9099C159.369 12.8557 157.311 12.7005 157.226 12.7402ZM165.866 12.6275C165.344 12.6665 163.222 12.216 163.156 12.6105C163.135 13.2485 165.577 13.7174 165.866 12.6275ZM372.359 13.6212C372.113 12.1606 375.086 13.2685 376.111 13.0853C376.365 14.5468 373.385 13.4375 372.359 13.6212ZM353.742 12.5307C366.158 11.3894 363.403 14.5076 353.002 13.2415C352.986 12.3046 352.965 12.6026 353.742 12.5307ZM369.659 12.7158C369.206 13.6511 367.796 13.3727 366.845 13.297C367.016 12.6467 368.97 12.8835 369.659 12.7158ZM107.632 10.1538C108.445 8.99559 111.736 10.5418 111.136 11.0131C110.973 11.1151 107.343 10.7966 107.632 10.1538ZM331.791 12.7467C331.503 11.3261 335.214 11.9095 335.502 12.2252C336.648 13.4951 332.086 12.4336 331.791 12.7467ZM390.028 12.3817C390.686 11.2695 392.556 11.8427 393.763 11.858C393.213 12.809 391.047 12.4022 390.028 12.3817ZM381.32 11.5054C381.395 11.4627 383.078 11.5641 383.154 11.6153C384.532 12.7027 379.772 12.4217 381.32 11.5054ZM20.3512 4.55559C20.4092 4.52268 21.6626 4.65749 21.7035 4.70141C22.7714 5.82523 19.008 5.41516 20.3512 4.55559Z" fill="white"/>
</g>
<path d="M29.288 48.5L21.864 26.1H26.184L32.808 46.356H30.664L37.544 26.1H41.384L48.072 46.356H45.992L52.776 26.1H56.744L49.32 48.5H44.904L38.792 30.228H39.944L33.736 48.5H29.288ZM66.4998 48.724C64.6011 48.724 62.9371 48.3507 61.5078 47.604C60.0998 46.836 59.0011 45.7907 58.2118 44.468C57.4438 43.1453 57.0598 41.6413 57.0598 39.956C57.0598 38.2493 57.4331 36.7453 58.1798 35.444C58.9478 34.1213 59.9931 33.0867 61.3158 32.34C62.6598 31.5933 64.1851 31.22 65.8918 31.22C67.5558 31.22 69.0384 31.5827 70.3398 32.308C71.6411 33.0333 72.6651 34.0573 73.4118 35.38C74.1584 36.7027 74.5318 38.26 74.5318 40.052C74.5318 40.2227 74.5211 40.4147 74.4998 40.628C74.4998 40.8413 74.4891 41.044 74.4678 41.236H60.2278V38.58H72.3558L70.7878 39.412C70.8091 38.4307 70.6064 37.5667 70.1798 36.82C69.7531 36.0733 69.1664 35.4867 68.4198 35.06C67.6944 34.6333 66.8518 34.42 65.8918 34.42C64.9104 34.42 64.0464 34.6333 63.2998 35.06C62.5744 35.4867 61.9984 36.084 61.5718 36.852C61.1664 37.5987 60.9638 38.484 60.9638 39.508V40.148C60.9638 41.172 61.1984 42.0787 61.6678 42.868C62.1371 43.6573 62.7984 44.2653 63.6518 44.692C64.5051 45.1187 65.4864 45.332 66.5958 45.332C67.5558 45.332 68.4198 45.1827 69.1878 44.884C69.9558 44.5853 70.6384 44.116 71.2358 43.476L73.3798 45.94C72.6118 46.836 71.6411 47.5293 70.4678 48.02C69.3158 48.4893 67.9931 48.724 66.4998 48.724ZM78.374 48.5V24.756H82.374V48.5H78.374ZM95.464 48.724C93.672 48.724 92.072 48.3507 90.664 47.604C89.2773 46.836 88.1893 45.7907 87.4 44.468C86.6107 43.1453 86.216 41.6413 86.216 39.956C86.216 38.2493 86.6107 36.7453 87.4 35.444C88.1893 34.1213 89.2773 33.0867 90.664 32.34C92.072 31.5933 93.672 31.22 95.464 31.22C97.128 31.22 98.5893 31.5613 99.848 32.244C101.128 32.9053 102.099 33.8867 102.76 35.188L99.688 36.98C99.176 36.1693 98.5467 35.572 97.8 35.188C97.0747 34.804 96.2853 34.612 95.432 34.612C94.4507 34.612 93.5653 34.8253 92.776 35.252C91.9867 35.6787 91.368 36.2973 90.92 37.108C90.472 37.8973 90.248 38.8467 90.248 39.956C90.248 41.0653 90.472 42.0253 90.92 42.836C91.368 43.6253 91.9867 44.2333 92.776 44.66C93.5653 45.0867 94.4507 45.3 95.432 45.3C96.2853 45.3 97.0747 45.108 97.8 44.724C98.5467 44.34 99.176 43.7427 99.688 42.932L102.76 44.724C102.099 46.004 101.128 46.996 99.848 47.7C98.5893 48.3827 97.128 48.724 95.464 48.724ZM113.648 48.724C111.898 48.724 110.341 48.3507 108.976 47.604C107.61 46.836 106.533 45.7907 105.744 44.468C104.954 43.1453 104.56 41.6413 104.56 39.956C104.56 38.2493 104.954 36.7453 105.744 35.444C106.533 34.1213 107.61 33.0867 108.976 32.34C110.341 31.5933 111.898 31.22 113.648 31.22C115.418 31.22 116.986 31.5933 118.352 32.34C119.738 33.0867 120.816 34.1107 121.584 35.412C122.373 36.7133 122.768 38.228 122.768 39.956C122.768 41.6413 122.373 43.1453 121.584 44.468C120.816 45.7907 119.738 46.836 118.352 47.604C116.986 48.3507 115.418 48.724 113.648 48.724ZM113.648 45.3C114.629 45.3 115.504 45.0867 116.272 44.66C117.04 44.2333 117.637 43.6147 118.064 42.804C118.512 41.9933 118.736 41.044 118.736 39.956C118.736 38.8467 118.512 37.8973 118.064 37.108C117.637 36.2973 117.04 35.6787 116.272 35.252C115.504 34.8253 114.64 34.612 113.68 34.612C112.698 34.612 111.824 34.8253 111.056 35.252C110.309 35.6787 109.712 36.2973 109.264 37.108C108.816 37.8973 108.592 38.8467 108.592 39.956C108.592 41.044 108.816 41.9933 109.264 42.804C109.712 43.6147 110.309 44.2333 111.056 44.66C111.824 45.0867 112.688 45.3 113.648 45.3ZM148.161 31.22C149.526 31.22 150.731 31.4867 151.777 32.02C152.843 32.5533 153.675 33.3747 154.273 34.484C154.87 35.572 155.169 36.98 155.169 38.708V48.5H151.169V39.22C151.169 37.7053 150.838 36.5747 150.177 35.828C149.515 35.0813 148.566 34.708 147.329 34.708C146.454 34.708 145.675 34.9 144.993 35.284C144.331 35.668 143.809 36.2333 143.425 36.98C143.062 37.7267 142.881 38.676 142.881 39.828V48.5H138.881V39.22C138.881 37.7053 138.55 36.5747 137.889 35.828C137.227 35.0813 136.278 34.708 135.041 34.708C134.166 34.708 133.387 34.9 132.705 35.284C132.043 35.668 131.521 36.2333 131.137 36.98C130.774 37.7267 130.593 38.676 130.593 39.828V48.5H126.593V31.412H130.401V35.956L129.729 34.612C130.305 33.5027 131.137 32.66 132.225 32.084C133.334 31.508 134.593 31.22 136.001 31.22C137.601 31.22 138.987 31.6147 140.161 32.404C141.355 33.1933 142.145 34.388 142.529 35.988L140.961 35.444C141.515 34.164 142.433 33.14 143.713 32.372C144.993 31.604 146.475 31.22 148.161 31.22ZM168.344 48.724C166.445 48.724 164.781 48.3507 163.352 47.604C161.944 46.836 160.845 45.7907 160.056 44.468C159.288 43.1453 158.904 41.6413 158.904 39.956C158.904 38.2493 159.277 36.7453 160.024 35.444C160.792 34.1213 161.837 33.0867 163.16 32.34C164.504 31.5933 166.029 31.22 167.736 31.22C169.4 31.22 170.882 31.5827 172.184 32.308C173.485 33.0333 174.509 34.0573 175.256 35.38C176.002 36.7027 176.376 38.26 176.376 40.052C176.376 40.2227 176.365 40.4147 176.344 40.628C176.344 40.8413 176.333 41.044 176.312 41.236H162.072V38.58H174.2L172.632 39.412C172.653 38.4307 172.45 37.5667 172.024 36.82C171.597 36.0733 171.01 35.4867 170.264 35.06C169.538 34.6333 168.696 34.42 167.736 34.42C166.754 34.42 165.89 34.6333 165.144 35.06C164.418 35.4867 163.842 36.084 163.416 36.852C163.01 37.5987 162.808 38.484 162.808 39.508V40.148C162.808 41.172 163.042 42.0787 163.512 42.868C163.981 43.6573 164.642 44.2653 165.496 44.692C166.349 45.1187 167.33 45.332 168.44 45.332C169.4 45.332 170.264 45.1827 171.032 44.884C171.8 44.5853 172.482 44.116 173.08 43.476L175.224 45.94C174.456 46.836 173.485 47.5293 172.312 48.02C171.16 48.4893 169.837 48.724 168.344 48.724ZM195.494 48.724C193.616 48.724 192.166 48.244 191.141 47.284C190.118 46.3027 189.606 44.8627 189.606 42.964V27.636H193.606V42.868C193.606 43.6787 193.808 44.308 194.214 44.756C194.64 45.204 195.227 45.428 195.974 45.428C196.87 45.428 197.616 45.1933 198.214 44.724L199.334 47.572C198.864 47.956 198.288 48.244 197.606 48.436C196.923 48.628 196.219 48.724 195.494 48.724ZM186.79 34.74V31.54H198.182V34.74H186.79ZM209.742 48.724C207.992 48.724 206.435 48.3507 205.07 47.604C203.704 46.836 202.627 45.7907 201.838 44.468C201.048 43.1453 200.654 41.6413 200.654 39.956C200.654 38.2493 201.048 36.7453 201.838 35.444C202.627 34.1213 203.704 33.0867 205.07 32.34C206.435 31.5933 207.992 31.22 209.742 31.22C211.512 31.22 213.08 31.5933 214.446 32.34C215.832 33.0867 216.91 34.1107 217.678 35.412C218.467 36.7133 218.862 38.228 218.862 39.956C218.862 41.6413 218.467 43.1453 217.678 44.468C216.91 45.7907 215.832 46.836 214.446 47.604C213.08 48.3507 211.512 48.724 209.742 48.724ZM209.742 45.3C210.723 45.3 211.598 45.0867 212.366 44.66C213.134 44.2333 213.731 43.6147 214.158 42.804C214.606 41.9933 214.83 41.044 214.83 39.956C214.83 38.8467 214.606 37.8973 214.158 37.108C213.731 36.2973 213.134 35.6787 212.366 35.252C211.598 34.8253 210.734 34.612 209.774 34.612C208.792 34.612 207.918 34.8253 207.15 35.252C206.403 35.6787 205.806 36.2973 205.358 37.108C204.91 37.8973 204.686 38.8467 204.686 39.956C204.686 41.044 204.91 41.9933 205.358 42.804C205.806 43.6147 206.403 44.2333 207.15 44.66C207.918 45.0867 208.782 45.3 209.742 45.3ZM247.658 26.1H251.818V48.5H247.658V26.1ZM236.074 48.5H231.914V26.1H236.074V48.5ZM247.978 38.9H235.722V35.348H247.978V38.9ZM265.117 48.724C263.367 48.724 261.81 48.3507 260.445 47.604C259.079 46.836 258.002 45.7907 257.213 44.468C256.423 43.1453 256.029 41.6413 256.029 39.956C256.029 38.2493 256.423 36.7453 257.213 35.444C258.002 34.1213 259.079 33.0867 260.445 32.34C261.81 31.5933 263.367 31.22 265.117 31.22C266.887 31.22 268.455 31.5933 269.821 32.34C271.207 33.0867 272.285 34.1107 273.053 35.412C273.842 36.7133 274.237 38.228 274.237 39.956C274.237 41.6413 273.842 43.1453 273.053 44.468C272.285 45.7907 271.207 46.836 269.821 47.604C268.455 48.3507 266.887 48.724 265.117 48.724ZM265.117 45.3C266.098 45.3 266.973 45.0867 267.741 44.66C268.509 44.2333 269.106 43.6147 269.533 42.804C269.981 41.9933 270.205 41.044 270.205 39.956C270.205 38.8467 269.981 37.8973 269.533 37.108C269.106 36.2973 268.509 35.6787 267.741 35.252C266.973 34.8253 266.109 34.612 265.149 34.612C264.167 34.612 263.293 34.8253 262.525 35.252C261.778 35.6787 261.181 36.2973 260.733 37.108C260.285 37.8973 260.061 38.8467 260.061 39.956C260.061 41.044 260.285 41.9933 260.733 42.804C261.181 43.6147 261.778 44.2333 262.525 44.66C263.293 45.0867 264.157 45.3 265.117 45.3ZM299.63 31.22C300.995 31.22 302.2 31.4867 303.246 32.02C304.312 32.5533 305.144 33.3747 305.742 34.484C306.339 35.572 306.638 36.98 306.638 38.708V48.5H302.638V39.22C302.638 37.7053 302.307 36.5747 301.646 35.828C300.984 35.0813 300.035 34.708 298.798 34.708C297.923 34.708 297.144 34.9 296.462 35.284C295.8 35.668 295.278 36.2333 294.894 36.98C294.531 37.7267 294.35 38.676 294.35 39.828V48.5H290.35V39.22C290.35 37.7053 290.019 36.5747 289.358 35.828C288.696 35.0813 287.747 34.708 286.51 34.708C285.635 34.708 284.856 34.9 284.174 35.284C283.512 35.668 282.99 36.2333 282.606 36.98C282.243 37.7267 282.062 38.676 282.062 39.828V48.5H278.062V31.412H281.87V35.956L281.198 34.612C281.774 33.5027 282.606 32.66 283.694 32.084C284.803 31.508 286.062 31.22 287.47 31.22C289.07 31.22 290.456 31.6147 291.63 32.404C292.824 33.1933 293.614 34.388 293.998 35.988L292.43 35.444C292.984 34.164 293.902 33.14 295.182 32.372C296.462 31.604 297.944 31.22 299.63 31.22ZM311.749 48.5V31.412H315.749V48.5H311.749ZM313.765 28.596C313.018 28.596 312.4 28.3613 311.909 27.892C311.44 27.4227 311.205 26.8573 311.205 26.196C311.205 25.5133 311.44 24.948 311.909 24.5C312.4 24.0307 313.018 23.796 313.765 23.796C314.512 23.796 315.12 24.02 315.589 24.468C316.08 24.8947 316.325 25.4387 316.325 26.1C316.325 26.804 316.09 27.4013 315.621 27.892C315.152 28.3613 314.533 28.596 313.765 28.596ZM39.752 65.1H43.912V87.5H39.752V65.1ZM28.168 87.5H24.008V65.1H28.168V87.5ZM40.072 77.9H27.816V74.348H40.072V77.9ZM60.0583 87.5V84.044L59.8343 83.308V77.26C59.8343 76.0867 59.4823 75.18 58.7783 74.54C58.0743 73.8787 57.0076 73.548 55.5783 73.548C54.6183 73.548 53.6689 73.6973 52.7303 73.996C51.8129 74.2947 51.0343 74.7107 50.3943 75.244L48.8263 72.332C49.7436 71.628 50.8316 71.1053 52.0903 70.764C53.3703 70.4013 54.6929 70.22 56.0583 70.22C58.5329 70.22 60.4423 70.8173 61.7863 72.012C63.1516 73.1853 63.8343 75.0093 63.8343 77.484V87.5H60.0583ZM54.6823 87.724C53.4023 87.724 52.2823 87.5107 51.3223 87.084C50.3623 86.636 49.6156 86.028 49.0823 85.26C48.5703 84.4707 48.3143 83.5853 48.3143 82.604C48.3143 81.644 48.5383 80.78 48.9863 80.012C49.4556 79.244 50.2129 78.636 51.2583 78.188C52.3036 77.74 53.6903 77.516 55.4183 77.516H60.3783V80.172H55.7063C54.3409 80.172 53.4236 80.396 52.9543 80.844C52.4849 81.2707 52.2503 81.804 52.2503 82.444C52.2503 83.1693 52.5383 83.7453 53.1143 84.172C53.6903 84.5987 54.4903 84.812 55.5143 84.812C56.4956 84.812 57.3703 84.588 58.1383 84.14C58.9276 83.692 59.4929 83.0307 59.8343 82.156L60.5063 84.556C60.1223 85.5587 59.4289 86.3373 58.4263 86.892C57.4449 87.4467 56.1969 87.724 54.6823 87.724ZM78.4398 87.724C77.0531 87.724 75.7838 87.404 74.6318 86.764C73.5011 86.124 72.5944 85.164 71.9118 83.884C71.2504 82.5827 70.9198 80.94 70.9198 78.956C70.9198 76.9507 71.2398 75.308 71.8798 74.028C72.5411 72.748 73.4371 71.7987 74.5677 71.18C75.6984 70.54 76.9891 70.22 78.4398 70.22C80.1251 70.22 81.6078 70.5827 82.8878 71.308C84.1891 72.0333 85.2131 73.0467 85.9598 74.348C86.7278 75.6493 87.1118 77.1853 87.1118 78.956C87.1118 80.7267 86.7278 82.2733 85.9598 83.596C85.2131 84.8973 84.1891 85.9107 82.8878 86.636C81.6078 87.3613 80.1251 87.724 78.4398 87.724ZM68.9678 93.708V70.412H72.7758V74.444L72.6478 78.988L72.9678 83.532V93.708H68.9678ZM77.9918 84.3C78.9518 84.3 79.8051 84.0867 80.5518 83.66C81.3198 83.2333 81.9278 82.6147 82.3758 81.804C82.8238 80.9933 83.0478 80.044 83.0478 78.956C83.0478 77.8467 82.8238 76.8973 82.3758 76.108C81.9278 75.2973 81.3198 74.6787 80.5518 74.252C79.8051 73.8253 78.9518 73.612 77.9918 73.612C77.0318 73.612 76.1678 73.8253 75.3998 74.252C74.6318 74.6787 74.0238 75.2973 73.5758 76.108C73.1278 76.8973 72.9038 77.8467 72.9038 78.956C72.9038 80.044 73.1278 80.9933 73.5758 81.804C74.0238 82.6147 74.6318 83.2333 75.3998 83.66C76.1678 84.0867 77.0318 84.3 77.9918 84.3ZM100.377 87.724C98.9906 87.724 97.7213 87.404 96.5693 86.764C95.4386 86.124 94.5319 85.164 93.8493 83.884C93.1879 82.5827 92.8573 80.94 92.8573 78.956C92.8573 76.9507 93.1773 75.308 93.8173 74.028C94.4786 72.748 95.3746 71.7987 96.5052 71.18C97.6359 70.54 98.9266 70.22 100.377 70.22C102.063 70.22 103.545 70.5827 104.825 71.308C106.127 72.0333 107.151 73.0467 107.897 74.348C108.665 75.6493 109.049 77.1853 109.049 78.956C109.049 80.7267 108.665 82.2733 107.897 83.596C107.151 84.8973 106.127 85.9107 104.825 86.636C103.545 87.3613 102.063 87.724 100.377 87.724ZM90.9053 93.708V70.412H94.7133V74.444L94.5853 78.988L94.9053 83.532V93.708H90.9053ZM99.9293 84.3C100.889 84.3 101.743 84.0867 102.489 83.66C103.257 83.2333 103.865 82.6147 104.313 81.804C104.761 80.9933 104.985 80.044 104.985 78.956C104.985 77.8467 104.761 76.8973 104.313 76.108C103.865 75.2973 103.257 74.6787 102.489 74.252C101.743 73.8253 100.889 73.612 99.9293 73.612C98.9693 73.612 98.1053 73.8253 97.3373 74.252C96.5693 74.6787 95.9613 75.2973 95.5133 76.108C95.0653 76.8973 94.8413 77.8467 94.8413 78.956C94.8413 80.044 95.0653 80.9933 95.5133 81.804C95.9613 82.6147 96.5693 83.2333 97.3373 83.66C98.1053 84.0867 98.9693 84.3 99.9293 84.3ZM113.782 93.932C112.95 93.932 112.118 93.7933 111.286 93.516C110.454 93.2387 109.761 92.8547 109.206 92.364L110.806 89.42C111.211 89.7827 111.67 90.0707 112.182 90.284C112.694 90.4973 113.217 90.604 113.75 90.604C114.475 90.604 115.062 90.4227 115.51 90.06C115.958 89.6973 116.374 89.0893 116.758 88.236L117.75 85.996L118.07 85.516L124.534 70.412H128.374L120.374 88.876C119.841 90.156 119.243 91.1693 118.582 91.916C117.942 92.6627 117.217 93.1853 116.406 93.484C115.617 93.7827 114.742 93.932 113.782 93.932ZM117.302 88.108L109.59 70.412H113.75L120.022 85.164L117.302 88.108ZM146.15 87.724C144.272 87.724 142.822 87.244 141.798 86.284C140.774 85.3027 140.262 83.8627 140.262 81.964V66.636H144.262V81.868C144.262 82.6787 144.464 83.308 144.87 83.756C145.296 84.204 145.883 84.428 146.63 84.428C147.526 84.428 148.272 84.1933 148.87 83.724L149.99 86.572C149.52 86.956 148.944 87.244 148.262 87.436C147.579 87.628 146.875 87.724 146.15 87.724ZM137.446 73.74V70.54H148.838V73.74H137.446ZM160.398 87.724C158.648 87.724 157.091 87.3507 155.726 86.604C154.36 85.836 153.283 84.7907 152.494 83.468C151.704 82.1453 151.31 80.6413 151.31 78.956C151.31 77.2493 151.704 75.7453 152.494 74.444C153.283 73.1213 154.36 72.0867 155.726 71.34C157.091 70.5933 158.648 70.22 160.398 70.22C162.168 70.22 163.736 70.5933 165.102 71.34C166.488 72.0867 167.566 73.1107 168.334 74.412C169.123 75.7133 169.518 77.228 169.518 78.956C169.518 80.6413 169.123 82.1453 168.334 83.468C167.566 84.7907 166.488 85.836 165.102 86.604C163.736 87.3507 162.168 87.724 160.398 87.724ZM160.398 84.3C161.379 84.3 162.254 84.0867 163.022 83.66C163.79 83.2333 164.387 82.6147 164.814 81.804C165.262 80.9933 165.486 80.044 165.486 78.956C165.486 77.8467 165.262 76.8973 164.814 76.108C164.387 75.2973 163.79 74.6787 163.022 74.252C162.254 73.8253 161.39 73.612 160.43 73.612C159.448 73.612 158.574 73.8253 157.806 74.252C157.059 74.6787 156.462 75.2973 156.014 76.108C155.566 76.8973 155.342 77.8467 155.342 78.956C155.342 80.044 155.566 80.9933 156.014 81.804C156.462 82.6147 157.059 83.2333 157.806 83.66C158.574 84.0867 159.438 84.3 160.398 84.3ZM180.427 93.932C179.68 93.932 178.976 93.8467 178.314 93.676C177.632 93.5267 177.056 93.2813 176.586 92.94L177.738 89.964C178.357 90.412 179.136 90.636 180.075 90.636C180.8 90.636 181.365 90.4013 181.771 89.932C182.176 89.484 182.379 88.812 182.379 87.916V70.412H186.379V87.82C186.379 89.6973 185.856 91.18 184.811 92.268C183.787 93.3773 182.325 93.932 180.427 93.932ZM184.363 67.596C183.616 67.596 182.997 67.3613 182.507 66.892C182.037 66.4227 181.803 65.8573 181.803 65.196C181.803 64.5133 182.037 63.948 182.507 63.5C182.997 63.0307 183.616 62.796 184.363 62.796C185.109 62.796 185.717 63.02 186.187 63.468C186.677 63.8947 186.923 64.4387 186.923 65.1C186.923 65.804 186.688 66.4013 186.219 66.892C185.749 67.3613 185.131 67.596 184.363 67.596ZM199.304 87.724C197.555 87.724 195.997 87.3507 194.632 86.604C193.267 85.836 192.189 84.7907 191.4 83.468C190.611 82.1453 190.216 80.6413 190.216 78.956C190.216 77.2493 190.611 75.7453 191.4 74.444C192.189 73.1213 193.267 72.0867 194.632 71.34C195.997 70.5933 197.555 70.22 199.304 70.22C201.075 70.22 202.643 70.5933 204.008 71.34C205.395 72.0867 206.472 73.1107 207.24 74.412C208.029 75.7133 208.424 77.228 208.424 78.956C208.424 80.6413 208.029 82.1453 207.24 83.468C206.472 84.7907 205.395 85.836 204.008 86.604C202.643 87.3507 201.075 87.724 199.304 87.724ZM199.304 84.3C200.285 84.3 201.16 84.0867 201.928 83.66C202.696 83.2333 203.293 82.6147 203.72 81.804C204.168 80.9933 204.392 80.044 204.392 78.956C204.392 77.8467 204.168 76.8973 203.72 76.108C203.293 75.2973 202.696 74.6787 201.928 74.252C201.16 73.8253 200.296 73.612 199.336 73.612C198.355 73.612 197.48 73.8253 196.712 74.252C195.965 74.6787 195.368 75.2973 194.92 76.108C194.472 76.8973 194.248 77.8467 194.248 78.956C194.248 80.044 194.472 80.9933 194.92 81.804C195.368 82.6147 195.965 83.2333 196.712 83.66C197.48 84.0867 198.344 84.3 199.304 84.3ZM212.249 87.5V70.412H216.249V87.5H212.249ZM214.265 67.596C213.518 67.596 212.9 67.3613 212.409 66.892C211.94 66.4227 211.705 65.8573 211.705 65.196C211.705 64.5133 211.94 63.948 212.409 63.5C212.9 63.0307 213.518 62.796 214.265 62.796C215.012 62.796 215.62 63.02 216.089 63.468C216.58 63.8947 216.825 64.4387 216.825 65.1C216.825 65.804 216.59 66.4013 216.121 66.892C215.652 67.3613 215.033 67.596 214.265 67.596ZM231.195 70.22C232.56 70.22 233.776 70.4867 234.843 71.02C235.931 71.5533 236.784 72.3747 237.403 73.484C238.022 74.572 238.331 75.98 238.331 77.708V87.5H234.331V78.22C234.331 76.7053 233.968 75.5747 233.243 74.828C232.539 74.0813 231.547 73.708 230.267 73.708C229.328 73.708 228.496 73.9 227.771 74.284C227.046 74.668 226.48 75.244 226.075 76.012C225.691 76.7587 225.499 77.708 225.499 78.86V87.5H221.499V70.412H225.307V75.02L224.635 73.612C225.232 72.524 226.096 71.692 227.227 71.116C228.379 70.5187 229.702 70.22 231.195 70.22ZM259.929 87.724C258.18 87.724 256.622 87.3507 255.257 86.604C253.892 85.836 252.814 84.7907 252.025 83.468C251.236 82.1453 250.841 80.6413 250.841 78.956C250.841 77.2493 251.236 75.7453 252.025 74.444C252.814 73.1213 253.892 72.0867 255.257 71.34C256.622 70.5933 258.18 70.22 259.929 70.22C261.7 70.22 263.268 70.5933 264.633 71.34C266.02 72.0867 267.097 73.1107 267.865 74.412C268.654 75.7133 269.049 77.228 269.049 78.956C269.049 80.6413 268.654 82.1453 267.865 83.468C267.097 84.7907 266.02 85.836 264.633 86.604C263.268 87.3507 261.7 87.724 259.929 87.724ZM259.929 84.3C260.91 84.3 261.785 84.0867 262.553 83.66C263.321 83.2333 263.918 82.6147 264.345 81.804C264.793 80.9933 265.017 80.044 265.017 78.956C265.017 77.8467 264.793 76.8973 264.345 76.108C263.918 75.2973 263.321 74.6787 262.553 74.252C261.785 73.8253 260.921 73.612 259.961 73.612C258.98 73.612 258.105 73.8253 257.337 74.252C256.59 74.6787 255.993 75.2973 255.545 76.108C255.097 76.8973 254.873 77.8467 254.873 78.956C254.873 80.044 255.097 80.9933 255.545 81.804C255.993 82.6147 256.59 83.2333 257.337 83.66C258.105 84.0867 258.969 84.3 259.929 84.3ZM280.106 87.724C278.655 87.724 277.375 87.4573 276.266 86.924C275.157 86.3693 274.293 85.5373 273.674 84.428C273.055 83.2973 272.746 81.8787 272.746 80.172V70.412H276.746V79.628C276.746 81.164 277.087 82.316 277.77 83.084C278.474 83.8307 279.466 84.204 280.746 84.204C281.685 84.204 282.495 84.012 283.178 83.628C283.882 83.244 284.426 82.668 284.81 81.9C285.215 81.132 285.418 80.1827 285.418 79.052V70.412H289.418V87.5H285.61V82.892L286.282 84.3C285.706 85.4093 284.863 86.2627 283.754 86.86C282.645 87.436 281.429 87.724 280.106 87.724ZM294.655 87.5V70.412H298.463V75.116L298.015 73.74C298.527 72.588 299.327 71.7133 300.415 71.116C301.525 70.5187 302.901 70.22 304.543 70.22V74.028C304.373 73.9853 304.213 73.964 304.063 73.964C303.914 73.9427 303.765 73.932 303.615 73.932C302.101 73.932 300.895 74.38 299.999 75.276C299.103 76.1507 298.655 77.4627 298.655 79.212V87.5H294.655ZM324.777 87.724C322.985 87.724 321.385 87.3507 319.977 86.604C318.59 85.836 317.502 84.7907 316.713 83.468C315.923 82.1453 315.529 80.6413 315.529 78.956C315.529 77.2493 315.923 75.7453 316.713 74.444C317.502 73.1213 318.59 72.0867 319.977 71.34C321.385 70.5933 322.985 70.22 324.777 70.22C326.441 70.22 327.902 70.5613 329.161 71.244C330.441 71.9053 331.411 72.8867 332.073 74.188L329.001 75.98C328.489 75.1693 327.859 74.572 327.113 74.188C326.387 73.804 325.598 73.612 324.745 73.612C323.763 73.612 322.878 73.8253 322.089 74.252C321.299 74.6787 320.681 75.2973 320.233 76.108C319.785 76.8973 319.561 77.8467 319.561 78.956C319.561 80.0653 319.785 81.0253 320.233 81.836C320.681 82.6253 321.299 83.2333 322.089 83.66C322.878 84.0867 323.763 84.3 324.745 84.3C325.598 84.3 326.387 84.108 327.113 83.724C327.859 83.34 328.489 82.7427 329.001 81.932L332.073 83.724C331.411 85.004 330.441 85.996 329.161 86.7C327.902 87.3827 326.441 87.724 324.777 87.724ZM342.96 87.724C341.211 87.724 339.654 87.3507 338.288 86.604C336.923 85.836 335.846 84.7907 335.056 83.468C334.267 82.1453 333.872 80.6413 333.872 78.956C333.872 77.2493 334.267 75.7453 335.056 74.444C335.846 73.1213 336.923 72.0867 338.288 71.34C339.654 70.5933 341.211 70.22 342.96 70.22C344.731 70.22 346.299 70.5933 347.664 71.34C349.051 72.0867 350.128 73.1107 350.896 74.412C351.686 75.7133 352.08 77.228 352.08 78.956C352.08 80.6413 351.686 82.1453 350.896 83.468C350.128 84.7907 349.051 85.836 347.664 86.604C346.299 87.3507 344.731 87.724 342.96 87.724ZM342.96 84.3C343.942 84.3 344.816 84.0867 345.584 83.66C346.352 83.2333 346.95 82.6147 347.376 81.804C347.824 80.9933 348.048 80.044 348.048 78.956C348.048 77.8467 347.824 76.8973 347.376 76.108C346.95 75.2973 346.352 74.6787 345.584 74.252C344.816 73.8253 343.952 73.612 342.992 73.612C342.011 73.612 341.136 73.8253 340.368 74.252C339.622 74.6787 339.024 75.2973 338.576 76.108C338.128 76.8973 337.904 77.8467 337.904 78.956C337.904 80.044 338.128 80.9933 338.576 81.804C339.024 82.6147 339.622 83.2333 340.368 83.66C341.136 84.0867 342 84.3 342.96 84.3ZM377.473 70.22C378.839 70.22 380.044 70.4867 381.089 71.02C382.156 71.5533 382.988 72.3747 383.585 73.484C384.183 74.572 384.481 75.98 384.481 77.708V87.5H380.481V78.22C380.481 76.7053 380.151 75.5747 379.489 74.828C378.828 74.0813 377.879 73.708 376.641 73.708C375.767 73.708 374.988 73.9 374.305 74.284C373.644 74.668 373.121 75.2333 372.737 75.98C372.375 76.7267 372.193 77.676 372.193 78.828V87.5H368.193V78.22C368.193 76.7053 367.863 75.5747 367.201 74.828C366.54 74.0813 365.591 73.708 364.353 73.708C363.479 73.708 362.7 73.9 362.017 74.284C361.356 74.668 360.833 75.2333 360.449 75.98C360.087 76.7267 359.905 77.676 359.905 78.828V87.5H355.905V70.412H359.713V74.956L359.041 73.612C359.617 72.5027 360.449 71.66 361.537 71.084C362.647 70.508 363.905 70.22 365.313 70.22C366.913 70.22 368.3 70.6147 369.473 71.404C370.668 72.1933 371.457 73.388 371.841 74.988L370.273 74.444C370.828 73.164 371.745 72.14 373.025 71.372C374.305 70.604 375.788 70.22 377.473 70.22ZM411.161 70.22C412.526 70.22 413.731 70.4867 414.777 71.02C415.843 71.5533 416.675 72.3747 417.273 73.484C417.87 74.572 418.169 75.98 418.169 77.708V87.5H414.169V78.22C414.169 76.7053 413.838 75.5747 413.177 74.828C412.515 74.0813 411.566 73.708 410.329 73.708C409.454 73.708 408.675 73.9 407.993 74.284C407.331 74.668 406.809 75.2333 406.425 75.98C406.062 76.7267 405.881 77.676 405.881 78.828V87.5H401.881V78.22C401.881 76.7053 401.55 75.5747 400.889 74.828C400.227 74.0813 399.278 73.708 398.041 73.708C397.166 73.708 396.387 73.9 395.705 74.284C395.043 74.668 394.521 75.2333 394.137 75.98C393.774 76.7267 393.593 77.676 393.593 78.828V87.5H389.593V70.412H393.401V74.956L392.729 73.612C393.305 72.5027 394.137 71.66 395.225 71.084C396.334 70.508 397.593 70.22 399.001 70.22C400.601 70.22 401.987 70.6147 403.161 71.404C404.355 72.1933 405.145 73.388 405.529 74.988L403.961 74.444C404.515 73.164 405.433 72.14 406.713 71.372C407.993 70.604 409.475 70.22 411.161 70.22ZM430.512 87.724C429.062 87.724 427.782 87.4573 426.672 86.924C425.563 86.3693 424.699 85.5373 424.08 84.428C423.462 83.2973 423.152 81.8787 423.152 80.172V70.412H427.152V79.628C427.152 81.164 427.494 82.316 428.176 83.084C428.88 83.8307 429.872 84.204 431.152 84.204C432.091 84.204 432.902 84.012 433.584 83.628C434.288 83.244 434.832 82.668 435.216 81.9C435.622 81.132 435.824 80.1827 435.824 79.052V70.412H439.824V87.5H436.016V82.892L436.688 84.3C436.112 85.4093 435.27 86.2627 434.16 86.86C433.051 87.436 431.835 87.724 430.512 87.724ZM454.758 70.22C456.123 70.22 457.339 70.4867 458.406 71.02C459.494 71.5533 460.347 72.3747 460.966 73.484C461.584 74.572 461.894 75.98 461.894 77.708V87.5H457.894V78.22C457.894 76.7053 457.531 75.5747 456.806 74.828C456.102 74.0813 455.11 73.708 453.83 73.708C452.891 73.708 452.059 73.9 451.334 74.284C450.608 74.668 450.043 75.244 449.638 76.012C449.254 76.7587 449.062 77.708 449.062 78.86V87.5H445.062V70.412H448.87V75.02L448.198 73.612C448.795 72.524 449.659 71.692 450.79 71.116C451.942 70.5187 453.264 70.22 454.758 70.22ZM466.968 87.5V70.412H470.968V87.5H466.968ZM468.984 67.596C468.237 67.596 467.618 67.3613 467.128 66.892C466.658 66.4227 466.424 65.8573 466.424 65.196C466.424 64.5133 466.658 63.948 467.128 63.5C467.618 63.0307 468.237 62.796 468.984 62.796C469.73 62.796 470.338 63.02 470.808 63.468C471.298 63.8947 471.544 64.4387 471.544 65.1C471.544 65.804 471.309 66.4013 470.84 66.892C470.37 67.3613 469.752 67.596 468.984 67.596ZM482.65 87.724C480.772 87.724 479.322 87.244 478.298 86.284C477.274 85.3027 476.762 83.8627 476.762 81.964V66.636H480.762V81.868C480.762 82.6787 480.964 83.308 481.37 83.756C481.796 84.204 482.383 84.428 483.13 84.428C484.026 84.428 484.772 84.1933 485.37 83.724L486.49 86.572C486.02 86.956 485.444 87.244 484.762 87.436C484.079 87.628 483.375 87.724 482.65 87.724ZM473.946 73.74V70.54H485.338V73.74H473.946ZM490.876 93.932C490.044 93.932 489.212 93.7933 488.38 93.516C487.548 93.2387 486.854 92.8547 486.3 92.364L487.9 89.42C488.305 89.7827 488.764 90.0707 489.276 90.284C489.788 90.4973 490.31 90.604 490.844 90.604C491.569 90.604 492.156 90.4227 492.604 90.06C493.052 89.6973 493.468 89.0893 493.852 88.236L494.844 85.996L495.164 85.516L501.628 70.412H505.468L497.468 88.876C496.934 90.156 496.337 91.1693 495.676 91.916C495.036 92.6627 494.31 93.1853 493.5 93.484C492.71 93.7827 491.836 93.932 490.876 93.932ZM494.396 88.108L486.684 70.412H490.844L497.116 85.164L494.396 88.108ZM508.224 80.076L507.456 65.1H512.192L511.392 80.076H508.224ZM509.824 87.724C509.077 87.724 508.458 87.4787 507.968 86.988C507.477 86.4973 507.232 85.9107 507.232 85.228C507.232 84.5453 507.477 83.9693 507.968 83.5C508.458 83.0093 509.077 82.764 509.824 82.764C510.57 82.764 511.178 83.0093 511.648 83.5C512.117 83.9693 512.352 84.5453 512.352 85.228C512.352 85.9107 512.117 86.4973 511.648 86.988C511.178 87.4787 510.57 87.724 509.824 87.724Z" fill="#0088BD"/>
</svg>
